<?xml version="1.0" encoding="utf-8"?>
<!-- Generator: Adobe Illustrator 28.1.0, SVG Export Plug-In . SVG Version: 6.00 Build 0)  -->
<svg version="1.1" id="Layer_1" xmlns="http://www.w3.org/2000/svg" xmlns:xlink="http://www.w3.org/1999/xlink" x="0px" y="0px"
	 viewBox="0 0 1500 500" style="enable-background:new 0 0 1500 500;" xml:space="preserve">
<style type="text/css">
	.st0{fill:#0077E2;}
</style>
<path class="st0" d="M609.6,321.3c-7.9,0-14.4-6.4-14.4-14.4V193c0-7.9,6.4-14.4,14.4-14.4S624,185.1,624,193v113.9
	C624,314.9,617.6,321.3,609.6,321.3z"/>
<path class="st0" d="M846.6,321.3c-7.9,0-14.4-6.4-14.4-14.4V193c0-7.9,6.4-14.4,14.4-14.4S861,185.1,861,193v113.9
	C861,314.9,854.6,321.3,846.6,321.3z"/>
<path class="st0" d="M668.9,376.4c-7.9,0-14.4-6.4-14.4-14.4V137.9c0-7.9,6.4-14.4,14.4-14.4s14.4,6.4,14.4,14.4V362
	C683.3,370,676.8,376.4,668.9,376.4z"/>
<path class="st0" d="M787.4,376.4c-7.9,0-14.4-6.4-14.4-14.4V137.9c0-7.9,6.4-14.4,14.4-14.4s14.4,6.4,14.4,14.4V362
	C801.8,370,795.3,376.4,787.4,376.4z"/>
<path class="st0" d="M728.1,473.8c-7.9,0-14.4-6.4-14.4-14.4V40.5c0-7.9,6.4-14.4,14.4-14.4s14.4,6.4,14.4,14.4v418.9
	C742.5,467.4,736.1,473.8,728.1,473.8z"/>
<g>
	<g>
		<path d="M982.7,298.6c-4.4,2.4-9,4.2-13.9,5.5c-4.9,1.3-9.8,1.9-15,1.9c-8.6,0-16.6-1.6-24-4.8c-7.4-3.2-14-7.6-19.7-13.3
			c-5.7-5.7-10.1-12.2-13.3-19.6c-3.2-7.4-4.8-15.4-4.8-24c0-8.4,1.6-16.4,4.8-23.9c3.2-7.5,7.6-14.1,13.3-19.8
			c5.7-5.7,12.2-10.1,19.7-13.3c7.4-3.2,15.4-4.8,24-4.8c8.4,0,16.4,1.6,23.9,4.8c7.5,3.2,14.1,7.7,19.8,13.3
			c5.7,5.7,10.1,12.3,13.3,19.8c3.2,7.5,4.8,15.5,4.8,23.9v53.6c0,2.2-0.8,4.1-2.3,5.8c-1.6,1.6-3.5,2.5-5.9,2.5
			c-2.2,0-4.1-0.8-5.6-2.5c-1.6-1.6-2.3-3.6-2.3-5.8v-12.1C994.9,290.8,989.3,295.1,982.7,298.6z M908.3,244.2
			c0,6.2,1.2,12.1,3.6,17.7c2.4,5.6,5.6,10.4,9.8,14.6c4.1,4.1,9,7.4,14.6,9.8c5.6,2.4,11.5,3.6,17.7,3.6c6.2,0,12.1-1.2,17.7-3.6
			c5.6-2.4,10.4-5.6,14.6-9.8c4.1-4.1,7.4-9,9.8-14.6c2.4-5.6,3.6-11.5,3.6-17.7c0-6.2-1.2-12.1-3.6-17.7
			c-2.4-5.6-5.6-10.4-9.8-14.6c-4.1-4.1-9-7.4-14.6-9.8c-5.6-2.4-11.5-3.6-17.7-3.6c-6.2,0-12.1,1.2-17.7,3.6
			c-5.6,2.4-10.4,5.6-14.6,9.8c-4.1,4.1-7.4,9-9.8,14.6C909.5,232,908.3,237.9,908.3,244.2z"/>
		<path d="M1146.8,182.3c2.2,0,4.1,0.8,5.6,2.3c1.6,1.6,2.3,3.4,2.3,5.6v53.9c0,8.6-1.6,16.6-4.8,24c-3.2,7.4-7.7,14-13.3,19.6
			c-5.7,5.7-12.3,10.1-19.8,13.3c-7.5,3.2-15.5,4.8-23.9,4.8c-8.6,0-16.6-1.6-24-4.8c-7.4-3.2-13.9-7.6-19.5-13.3
			c-5.6-5.7-10-12.2-13.2-19.6c-3.2-7.4-4.8-15.4-4.8-24v-53.9c0-2.2,0.8-4.1,2.3-5.6c1.6-1.6,3.4-2.3,5.6-2.3
			c2.2,0,4.1,0.8,5.6,2.3c1.6,1.6,2.3,3.4,2.3,5.6v53.9c0,6.2,1.2,12.1,3.6,17.7c2.4,5.6,5.6,10.4,9.8,14.6c4.1,4.1,9,7.4,14.6,9.8
			c5.6,2.4,11.5,3.6,17.7,3.6c6.2,0,12.1-1.2,17.7-3.6c5.6-2.4,10.4-5.6,14.6-9.8c4.1-4.1,7.4-9,9.8-14.6c2.4-5.6,3.6-11.5,3.6-17.7
			v-53.9c0-2.2,0.8-4.1,2.5-5.6C1142.7,183.1,1144.6,182.3,1146.8,182.3z"/>
		<path d="M1232.8,182.3c10.3,0,20,2.5,29.1,7.4c6.4,3.5,11.9,7.8,16.5,12.9v-79.4c0-2.2,0.8-4.1,2.3-5.6c1.6-1.6,3.5-2.3,5.9-2.3
			c2.2,0,4.1,0.8,5.6,2.3c1.6,1.6,2.3,3.4,2.3,5.6v120.9c0,8.6-1.6,16.6-4.8,24c-3.2,7.4-7.7,14-13.3,19.6
			c-5.7,5.7-12.3,10.1-19.8,13.3c-7.5,3.2-15.5,4.8-23.9,4.8c-8.6,0-16.6-1.6-24-4.8c-7.4-3.2-14-7.6-19.7-13.3
			c-5.7-5.7-10.1-12.2-13.3-19.6c-3.2-7.4-4.8-15.4-4.8-24c0-8.4,1.6-16.4,4.8-23.9c3.2-7.5,7.6-14.1,13.3-19.8
			c5.7-5.7,12.2-10.1,19.7-13.3C1216.2,183.9,1224.2,182.3,1232.8,182.3z M1278.4,244.2c0-6.2-1.2-12.1-3.6-17.7
			c-2.4-5.6-5.6-10.4-9.8-14.6c-4.1-4.1-9-7.4-14.6-9.8c-5.6-2.4-11.5-3.6-17.7-3.6c-6.2,0-12.1,1.2-17.7,3.6
			c-5.6,2.4-10.4,5.6-14.6,9.8c-4.1,4.1-7.4,9-9.8,14.6c-2.4,5.6-3.6,11.5-3.6,17.7c0,6.4,1.2,12.4,3.6,17.9
			c2.4,5.5,5.6,10.3,9.8,14.4c4.1,4.1,9,7.4,14.6,9.8c5.6,2.4,11.5,3.6,17.7,3.6c6.2,0,12.1-1.2,17.7-3.6c5.6-2.4,10.4-5.6,14.6-9.8
			c4.1-4.1,7.4-8.9,9.8-14.4C1277.2,256.5,1278.4,250.6,1278.4,244.2z"/>
		<path d="M1320.7,171.6c-2.2,0-4.1-0.8-5.6-2.3c-1.6-1.6-2.3-3.4-2.3-5.6v-3c0-2.2,0.8-4.1,2.3-5.8c1.6-1.6,3.4-2.5,5.6-2.5
			c2.2,0,4.1,0.8,5.8,2.5c1.6,1.6,2.5,3.6,2.5,5.8v3c0,2.2-0.8,4.1-2.5,5.6C1324.9,170.8,1322.9,171.6,1320.7,171.6z M1320.7,306
			c-2.2,0-4.1-0.8-5.6-2.3c-1.6-1.6-2.3-3.5-2.3-5.9V190.6c0-2.4,0.8-4.3,2.3-5.9c1.6-1.6,3.4-2.3,5.6-2.3c2.2,0,4.1,0.8,5.8,2.3
			c1.6,1.6,2.5,3.5,2.5,5.9v107.2c0,2.4-0.8,4.4-2.5,5.9C1324.9,305.2,1322.9,306,1320.7,306z"/>
		<path d="M1408.1,306c-8.6,0-16.6-1.6-24-4.8c-7.4-3.2-14-7.6-19.7-13.2c-5.7-5.6-10.1-12.1-13.3-19.5c-3.2-7.4-4.8-15.4-4.8-24
			c0-8.4,1.6-16.4,4.8-23.9c3.2-7.5,7.6-14.1,13.3-19.8c5.7-5.7,12.2-10.1,19.7-13.3c7.4-3.2,15.4-4.8,24-4.8
			c8.4,0,16.4,1.6,23.9,4.8c7.5,3.2,14.1,7.7,19.8,13.3c5.7,5.7,10.1,12.3,13.3,19.8c3.2,7.5,4.8,15.5,4.8,23.9
			c0,8.6-1.6,16.6-4.8,24c-3.2,7.4-7.7,13.9-13.3,19.5c-5.7,5.6-12.3,10-19.8,13.2C1424.5,304.4,1416.6,306,1408.1,306z
			 M1408.1,198.8c-6.2,0-12.1,1.2-17.7,3.6c-5.6,2.4-10.4,5.6-14.6,9.8c-4.1,4.1-7.4,9-9.8,14.6c-2.4,5.6-3.6,11.5-3.6,17.7
			c0,6.2,1.2,12.1,3.6,17.7c2.4,5.6,5.6,10.4,9.8,14.6c4.1,4.1,9,7.4,14.6,9.8c5.6,2.4,11.5,3.6,17.7,3.6c6.2,0,12.1-1.2,17.7-3.6
			c5.6-2.4,10.4-5.6,14.6-9.8c4.1-4.1,7.4-9,9.8-14.6c2.4-5.6,3.6-11.5,3.6-17.7c0-6.2-1.2-12.1-3.6-17.7
			c-2.4-5.6-5.6-10.4-9.8-14.6c-4.1-4.1-9-7.4-14.6-9.8C1420.3,200,1414.4,198.8,1408.1,198.8z"/>
	</g>
	<g>
		<path d="M982.7,298.6c-4.4,2.4-9,4.2-13.9,5.5c-4.9,1.3-9.8,1.9-15,1.9c-8.6,0-16.6-1.6-24-4.8c-7.4-3.2-14-7.6-19.7-13.3
			c-5.7-5.7-10.1-12.2-13.3-19.6c-3.2-7.4-4.8-15.4-4.8-24c0-8.4,1.6-16.4,4.8-23.9c3.2-7.5,7.6-14.1,13.3-19.8
			c5.7-5.7,12.2-10.1,19.7-13.3c7.4-3.2,15.4-4.8,24-4.8c8.4,0,16.4,1.6,23.9,4.8c7.5,3.2,14.1,7.7,19.8,13.3
			c5.7,5.7,10.1,12.3,13.3,19.8c3.2,7.5,4.8,15.5,4.8,23.9v53.6c0,2.2-0.8,4.1-2.3,5.8c-1.6,1.6-3.5,2.5-5.9,2.5
			c-2.2,0-4.1-0.8-5.6-2.5c-1.6-1.6-2.3-3.6-2.3-5.8v-12.1C994.9,290.8,989.3,295.1,982.7,298.6z M908.3,244.2
			c0,6.2,1.2,12.1,3.6,17.7c2.4,5.6,5.6,10.4,9.8,14.6c4.1,4.1,9,7.4,14.6,9.8c5.6,2.4,11.5,3.6,17.7,3.6c6.2,0,12.1-1.2,17.7-3.6
			c5.6-2.4,10.4-5.6,14.6-9.8c4.1-4.1,7.4-9,9.8-14.6c2.4-5.6,3.6-11.5,3.6-17.7c0-6.2-1.2-12.1-3.6-17.7
			c-2.4-5.6-5.6-10.4-9.8-14.6c-4.1-4.1-9-7.4-14.6-9.8c-5.6-2.4-11.5-3.6-17.7-3.6c-6.2,0-12.1,1.2-17.7,3.6
			c-5.6,2.4-10.4,5.6-14.6,9.8c-4.1,4.1-7.4,9-9.8,14.6C909.5,232,908.3,237.9,908.3,244.2z"/>
		<path d="M1146.8,182.3c2.2,0,4.1,0.8,5.6,2.3c1.6,1.6,2.3,3.4,2.3,5.6v53.9c0,8.6-1.6,16.6-4.8,24c-3.2,7.4-7.7,14-13.3,19.6
			c-5.7,5.7-12.3,10.1-19.8,13.3c-7.5,3.2-15.5,4.8-23.9,4.8c-8.6,0-16.6-1.6-24-4.8c-7.4-3.2-13.9-7.6-19.5-13.3
			c-5.6-5.7-10-12.2-13.2-19.6c-3.2-7.4-4.8-15.4-4.8-24v-53.9c0-2.2,0.8-4.1,2.3-5.6c1.6-1.6,3.4-2.3,5.6-2.3
			c2.2,0,4.1,0.8,5.6,2.3c1.6,1.6,2.3,3.4,2.3,5.6v53.9c0,6.2,1.2,12.1,3.6,17.7c2.4,5.6,5.6,10.4,9.8,14.6c4.1,4.1,9,7.4,14.6,9.8
			c5.6,2.4,11.5,3.6,17.7,3.6c6.2,0,12.1-1.2,17.7-3.6c5.6-2.4,10.4-5.6,14.6-9.8c4.1-4.1,7.4-9,9.8-14.6c2.4-5.6,3.6-11.5,3.6-17.7
			v-53.9c0-2.2,0.8-4.1,2.5-5.6C1142.7,183.1,1144.6,182.3,1146.8,182.3z"/>
		<path d="M1232.8,182.3c10.3,0,20,2.5,29.1,7.4c6.4,3.5,11.9,7.8,16.5,12.9v-79.4c0-2.2,0.8-4.1,2.3-5.6c1.6-1.6,3.5-2.3,5.9-2.3
			c2.2,0,4.1,0.8,5.6,2.3c1.6,1.6,2.3,3.4,2.3,5.6v120.9c0,8.6-1.6,16.6-4.8,24c-3.2,7.4-7.7,14-13.3,19.6
			c-5.7,5.7-12.3,10.1-19.8,13.3c-7.5,3.2-15.5,4.8-23.9,4.8c-8.6,0-16.6-1.6-24-4.8c-7.4-3.2-14-7.6-19.7-13.3
			c-5.7-5.7-10.1-12.2-13.3-19.6c-3.2-7.4-4.8-15.4-4.8-24c0-8.4,1.6-16.4,4.8-23.9c3.2-7.5,7.6-14.1,13.3-19.8
			c5.7-5.7,12.2-10.1,19.7-13.3C1216.2,183.9,1224.2,182.3,1232.8,182.3z M1278.4,244.2c0-6.2-1.2-12.1-3.6-17.7
			c-2.4-5.6-5.6-10.4-9.8-14.6c-4.1-4.1-9-7.4-14.6-9.8c-5.6-2.4-11.5-3.6-17.7-3.6c-6.2,0-12.1,1.2-17.7,3.6
			c-5.6,2.4-10.4,5.6-14.6,9.8c-4.1,4.1-7.4,9-9.8,14.6c-2.4,5.6-3.6,11.5-3.6,17.7c0,6.4,1.2,12.4,3.6,17.9
			c2.4,5.5,5.6,10.3,9.8,14.4c4.1,4.1,9,7.4,14.6,9.8c5.6,2.4,11.5,3.6,17.7,3.6c6.2,0,12.1-1.2,17.7-3.6c5.6-2.4,10.4-5.6,14.6-9.8
			c4.1-4.1,7.4-8.9,9.8-14.4C1277.2,256.5,1278.4,250.6,1278.4,244.2z"/>
		<path d="M1320.7,171.6c-2.2,0-4.1-0.8-5.6-2.3c-1.6-1.6-2.3-3.4-2.3-5.6v-3c0-2.2,0.8-4.1,2.3-5.8c1.6-1.6,3.4-2.5,5.6-2.5
			c2.2,0,4.1,0.8,5.8,2.5c1.6,1.6,2.5,3.6,2.5,5.8v3c0,2.2-0.8,4.1-2.5,5.6C1324.9,170.8,1322.9,171.6,1320.7,171.6z M1320.7,306
			c-2.2,0-4.1-0.8-5.6-2.3c-1.6-1.6-2.3-3.5-2.3-5.9V190.6c0-2.4,0.8-4.3,2.3-5.9c1.6-1.6,3.4-2.3,5.6-2.3c2.2,0,4.1,0.8,5.8,2.3
			c1.6,1.6,2.5,3.5,2.5,5.9v107.2c0,2.4-0.8,4.4-2.5,5.9C1324.9,305.2,1322.9,306,1320.7,306z"/>
		<path d="M1408.1,306c-8.6,0-16.6-1.6-24-4.8c-7.4-3.2-14-7.6-19.7-13.2c-5.7-5.6-10.1-12.1-13.3-19.5c-3.2-7.4-4.8-15.4-4.8-24
			c0-8.4,1.6-16.4,4.8-23.9c3.2-7.5,7.6-14.1,13.3-19.8c5.7-5.7,12.2-10.1,19.7-13.3c7.4-3.2,15.4-4.8,24-4.8
			c8.4,0,16.4,1.6,23.9,4.8c7.5,3.2,14.1,7.7,19.8,13.3c5.7,5.7,10.1,12.3,13.3,19.8c3.2,7.5,4.8,15.5,4.8,23.9
			c0,8.6-1.6,16.6-4.8,24c-3.2,7.4-7.7,13.9-13.3,19.5c-5.7,5.6-12.3,10-19.8,13.2C1424.5,304.4,1416.6,306,1408.1,306z
			 M1408.1,198.8c-6.2,0-12.1,1.2-17.7,3.6c-5.6,2.4-10.4,5.6-14.6,9.8c-4.1,4.1-7.4,9-9.8,14.6c-2.4,5.6-3.6,11.5-3.6,17.7
			c0,6.2,1.2,12.1,3.6,17.7c2.4,5.6,5.6,10.4,9.8,14.6c4.1,4.1,9,7.4,14.6,9.8c5.6,2.4,11.5,3.6,17.7,3.6c6.2,0,12.1-1.2,17.7-3.6
			c5.6-2.4,10.4-5.6,14.6-9.8c4.1-4.1,7.4-9,9.8-14.6c2.4-5.6,3.6-11.5,3.6-17.7c0-6.2-1.2-12.1-3.6-17.7
			c-2.4-5.6-5.6-10.4-9.8-14.6c-4.1-4.1-9-7.4-14.6-9.8C1420.3,200,1414.4,198.8,1408.1,198.8z"/>
	</g>
</g>
<g>
	<path d="M38.3,306c-2.2,0-4.1-0.8-5.6-2.3c-1.6-1.6-2.3-3.4-2.3-5.6V123.5c0-2.2,0.8-4.1,2.3-5.8c1.6-1.6,3.4-2.5,5.6-2.5
		c2.2,0,4.1,0.8,5.6,2.5c1.6,1.6,2.3,3.6,2.3,5.8V298c0,2.2-0.8,4.1-2.3,5.6C42.4,305.2,40.5,306,38.3,306z"/>
	<path d="M181.2,182.3c2.2,0,4.1,0.8,5.6,2.3c1.6,1.6,2.3,3.4,2.3,5.6v53.9c0,8.6-1.6,16.6-4.8,24c-3.2,7.4-7.7,14-13.3,19.6
		c-5.7,5.7-12.3,10.1-19.8,13.3c-7.5,3.2-15.5,4.8-23.9,4.8c-8.6,0-16.6-1.6-24-4.8c-7.4-3.2-13.9-7.6-19.5-13.3
		c-5.6-5.7-10-12.2-13.2-19.6c-3.2-7.4-4.8-15.4-4.8-24v-53.9c0-2.2,0.8-4.1,2.3-5.6c1.6-1.6,3.4-2.3,5.6-2.3c2.2,0,4.1,0.8,5.6,2.3
		c1.6,1.6,2.3,3.4,2.3,5.6v53.9c0,6.2,1.2,12.1,3.6,17.7c2.4,5.6,5.6,10.4,9.8,14.6c4.1,4.1,9,7.4,14.6,9.8
		c5.6,2.4,11.5,3.6,17.7,3.6c6.2,0,12.1-1.2,17.7-3.6c5.6-2.4,10.4-5.6,14.6-9.8c4.1-4.1,7.4-9,9.8-14.6c2.4-5.6,3.6-11.5,3.6-17.7
		v-53.9c0-2.2,0.8-4.1,2.5-5.6C177.1,183.1,179,182.3,181.2,182.3z"/>
	<path d="M216.4,306c-2.2,0-4.1-0.8-5.8-2.3c-1.6-1.6-2.5-3.4-2.5-5.6V231c0-6.6,1.3-12.8,3.8-18.7c2.6-5.9,6-11,10.4-15.4
		c4.4-4.4,9.5-7.9,15.4-10.4c5.9-2.6,12.1-3.8,18.7-3.8c8.2,0,15.9,1.9,22.9,5.8c7,3.8,12.9,9.2,17.4,15.9
		c4.4-6.8,10.1-12.1,17.2-15.9c7.1-3.8,14.7-5.8,22.9-5.8c6.6,0,12.8,1.3,18.7,3.8c5.9,2.6,11,6,15.4,10.4
		c4.4,4.4,7.9,9.5,10.4,15.4c2.6,5.9,3.8,12.1,3.8,18.7V298c0,2.2-0.8,4.1-2.3,5.6c-1.6,1.6-3.4,2.3-5.6,2.3c-2.2,0-4.1-0.8-5.8-2.3
		c-1.6-1.6-2.5-3.4-2.5-5.6V231c0-4.4-0.8-8.6-2.5-12.5c-1.6-3.9-3.9-7.4-6.9-10.3c-2.9-2.9-6.4-5.2-10.3-6.9
		c-3.9-1.6-8.1-2.5-12.5-2.5c-4.4,0-8.6,0.8-12.5,2.5c-3.9,1.6-7.3,3.9-10.2,6.9c-2.8,2.9-5.1,6.4-6.9,10.3
		c-1.7,3.9-2.6,8.1-2.6,12.5V298c0,2.2-0.8,4.1-2.3,5.6c-1.6,1.6-3.4,2.3-5.6,2.3c-2.2,0-4.1-0.8-5.8-2.3c-1.6-1.6-2.5-3.4-2.5-5.6
		V231c0-4.4-0.8-8.6-2.5-12.5c-1.6-3.9-3.9-7.4-6.9-10.3c-2.9-2.9-6.4-5.2-10.3-6.9c-3.9-1.6-8.1-2.5-12.5-2.5
		c-4.4,0-8.6,0.8-12.5,2.5c-3.9,1.6-7.3,3.9-10.2,6.9c-2.8,2.9-5.1,6.4-6.9,10.3c-1.7,3.9-2.6,8.1-2.6,12.5V298
		c0,2.2-0.8,4.1-2.3,5.6C220.5,305.2,218.6,306,216.4,306z"/>
	<path d="M411.5,171.6c-2.2,0-4.1-0.8-5.6-2.3c-1.6-1.6-2.3-3.4-2.3-5.6v-3c0-2.2,0.8-4.1,2.3-5.8c1.6-1.6,3.4-2.5,5.6-2.5
		c2.2,0,4.1,0.8,5.8,2.5c1.6,1.6,2.5,3.6,2.5,5.8v3c0,2.2-0.8,4.1-2.5,5.6C415.6,170.8,413.7,171.6,411.5,171.6z M411.5,306
		c-2.2,0-4.1-0.8-5.6-2.3c-1.6-1.6-2.3-3.5-2.3-5.9V190.6c0-2.4,0.8-4.3,2.3-5.9c1.6-1.6,3.4-2.3,5.6-2.3c2.2,0,4.1,0.8,5.8,2.3
		c1.6,1.6,2.5,3.5,2.5,5.9v107.2c0,2.4-0.8,4.4-2.5,5.9C415.6,305.2,413.7,306,411.5,306z"/>
	<path d="M447.5,306c-2.4,0-4.4-0.8-5.9-2.5c-1.6-1.6-2.3-3.6-2.3-5.8v-53.6c0-8.4,1.6-16.4,4.8-23.9c3.2-7.5,7.6-14.1,13.3-19.8
		c5.7-5.7,12.2-10.1,19.6-13.3c7.4-3.2,15.4-4.8,24-4.8c8.4,0,16.4,1.6,23.9,4.8c7.5,3.2,14.1,7.7,19.8,13.3
		c5.7,5.7,10.1,12.3,13.3,19.8c3.2,7.5,4.8,15.5,4.8,23.9v53.6c0,2.2-0.8,4.1-2.3,5.8c-1.6,1.6-3.5,2.5-5.9,2.5
		c-2.2,0-4.1-0.8-5.6-2.5c-1.6-1.6-2.3-3.6-2.3-5.8v-53.6c0-6.2-1.2-12.1-3.6-17.7c-2.4-5.6-5.6-10.4-9.8-14.6
		c-4.1-4.1-9-7.4-14.6-9.8c-5.6-2.4-11.5-3.6-17.7-3.6c-6.4,0-12.4,1.2-17.9,3.6c-5.5,2.4-10.3,5.6-14.4,9.8
		c-4.1,4.1-7.4,9-9.8,14.6c-2.4,5.6-3.6,11.5-3.6,17.7v53.6c0,2.2-0.8,4.1-2.3,5.8C451.6,305.2,449.7,306,447.5,306z"/>
</g>
</svg>
