<?xml version="1.0" encoding="UTF-8"?>
<svg width="1440px" height="448px" viewBox="0 0 1440 448" version="1.1" xmlns="http://www.w3.org/2000/svg" xmlns:xlink="http://www.w3.org/1999/xlink">
    <!-- Generator: Sketch 55.2 (78181) - https://sketchapp.com -->
    <title>lumin-logo</title>
    <desc>Created with Sketch.</desc>
    <g id="Page-1" stroke="none" stroke-width="1" fill="none" fill-rule="evenodd">
        <g id="lumin-logo" fill-rule="nonzero">
            <path d="M579.6,295.3 C571.7,295.3 565.2,288.9 565.2,280.9 L565.2,167 C565.2,159.1 571.6,152.6 579.6,152.6 C587.6,152.6 594,159.1 594,167 L594,280.9 C594,288.9 587.6,295.3 579.6,295.3 Z" id="Path" fill="#0077E2"></path>
            <path d="M816.6,295.3 C808.7,295.3 802.2,288.9 802.2,280.9 L802.2,167 C802.2,159.1 808.6,152.6 816.6,152.6 C824.6,152.6 831,159.1 831,167 L831,280.9 C831,288.9 824.6,295.3 816.6,295.3 Z" id="Path" fill="#0077E2"></path>
            <path d="M638.9,350.4 C631,350.4 624.5,344 624.5,336 L624.5,111.9 C624.5,104 630.9,97.5 638.9,97.5 C646.9,97.5 653.3,103.9 653.3,111.9 L653.3,336 C653.3,344 646.8,350.4 638.9,350.4 Z" id="Path" fill="#0077E2"></path>
            <path d="M757.4,350.4 C749.5,350.4 743,344 743,336 L743,111.9 C743,104 749.4,97.5 757.4,97.5 C765.4,97.5 771.8,103.9 771.8,111.9 L771.8,336 C771.8,344 765.3,350.4 757.4,350.4 Z" id="Path" fill="#0077E2"></path>
            <path d="M698.1,447.8 C690.2,447.8 683.7,441.4 683.7,433.4 L683.7,14.5 C683.7,6.6 690.1,0.1 698.1,0.1 C706.1,0.1 712.5,6.5 712.5,14.5 L712.5,433.4 C712.5,441.4 706.1,447.8 698.1,447.8 Z" id="Path" fill="#0077E2"></path>
            <g id="Group" transform="translate(862.000000, 89.000000)">
                <g fill="#000000">
                    <path d="M90.7,183.6 C86.3,186 81.7,187.8 76.8,189.1 C71.9,190.4 67,191 61.8,191 C53.2,191 45.2,189.4 37.8,186.2 C30.4,183 23.8,178.6 18.1,172.9 C12.4,167.2 8,160.7 4.8,153.3 C1.6,145.9 1.13686838e-13,137.9 1.13686838e-13,129.3 C1.13686838e-13,120.9 1.6,112.9 4.8,105.4 C8,97.9 12.4,91.3 18.1,85.6 C23.8,79.9 30.3,75.5 37.8,72.3 C45.2,69.1 53.2,67.5 61.8,67.5 C70.2,67.5 78.2,69.1 85.7,72.3 C93.2,75.5 99.8,80 105.5,85.6 C111.2,91.3 115.6,97.9 118.8,105.4 C122,112.9 123.6,120.9 123.6,129.3 L123.6,182.9 C123.6,185.1 122.8,187 121.3,188.7 C119.7,190.3 117.8,191.2 115.4,191.2 C113.2,191.2 111.3,190.4 109.8,188.7 C108.2,187.1 107.5,185.1 107.5,182.9 L107.5,170.8 C102.9,175.8 97.3,180.1 90.7,183.6 Z M16.3,129.2 C16.3,135.4 17.5,141.3 19.9,146.9 C22.3,152.5 25.5,157.3 29.7,161.5 C33.8,165.6 38.7,168.9 44.3,171.3 C49.9,173.7 55.8,174.9 62,174.9 C68.2,174.9 74.1,173.7 79.7,171.3 C85.3,168.9 90.1,165.7 94.3,161.5 C98.4,157.4 101.7,152.5 104.1,146.9 C106.5,141.3 107.7,135.4 107.7,129.2 C107.7,123 106.5,117.1 104.1,111.5 C101.7,105.9 98.5,101.1 94.3,96.9 C90.2,92.8 85.3,89.5 79.7,87.1 C74.1,84.7 68.2,83.5 62,83.5 C55.8,83.5 49.9,84.7 44.3,87.1 C38.7,89.5 33.9,92.7 29.7,96.9 C25.6,101 22.3,105.9 19.9,111.5 C17.5,117 16.3,122.9 16.3,129.2 Z" id="Shape"></path>
                    <path d="M254.8,67.3 C257,67.3 258.9,68.1 260.4,69.6 C262,71.2 262.7,73 262.7,75.2 L262.7,129.1 C262.7,137.7 261.1,145.7 257.9,153.1 C254.7,160.5 250.2,167.1 244.6,172.7 C238.9,178.4 232.3,182.8 224.8,186 C217.3,189.2 209.3,190.8 200.9,190.8 C192.3,190.8 184.3,189.2 176.9,186 C169.5,182.8 163,178.4 157.4,172.7 C151.8,167 147.4,160.5 144.2,153.1 C141,145.7 139.4,137.7 139.4,129.1 L139.4,75.2 C139.4,73 140.2,71.1 141.7,69.6 C143.3,68 145.1,67.3 147.3,67.3 C149.5,67.3 151.4,68.1 152.9,69.6 C154.5,71.2 155.2,73 155.2,75.2 L155.2,129.1 C155.2,135.3 156.4,141.2 158.8,146.8 C161.2,152.4 164.4,157.2 168.6,161.4 C172.7,165.5 177.6,168.8 183.2,171.2 C188.8,173.6 194.7,174.8 200.9,174.8 C207.1,174.8 213,173.6 218.6,171.2 C224.2,168.8 229,165.6 233.2,161.4 C237.3,157.3 240.6,152.4 243,146.8 C245.4,141.2 246.6,135.3 246.6,129.1 L246.6,75.2 C246.6,73 247.4,71.1 249.1,69.6 C250.7,68.1 252.6,67.3 254.8,67.3 Z" id="Path"></path>
                    <path d="M340.8,67.3 C351.1,67.3 360.8,69.8 369.9,74.7 C376.3,78.2 381.8,82.5 386.4,87.6 L386.4,8.2 C386.4,6 387.2,4.1 388.7,2.6 C390.3,1 392.2,0.3 394.6,0.3 C396.8,0.3 398.7,1.1 400.2,2.6 C401.8,4.2 402.5,6 402.5,8.2 L402.5,129.1 C402.5,137.7 400.9,145.7 397.7,153.1 C394.5,160.5 390,167.1 384.4,172.7 C378.7,178.4 372.1,182.8 364.6,186 C357.1,189.2 349.1,190.8 340.7,190.8 C332.1,190.8 324.1,189.2 316.7,186 C309.3,182.8 302.7,178.4 297,172.7 C291.3,167 286.9,160.5 283.7,153.1 C280.5,145.7 278.9,137.7 278.9,129.1 C278.9,120.7 280.5,112.7 283.7,105.2 C286.9,97.7 291.3,91.1 297,85.4 C302.7,79.7 309.2,75.3 316.7,72.1 C324.2,68.9 332.2,67.3 340.8,67.3 Z M386.4,129.2 C386.4,123 385.2,117.1 382.8,111.5 C380.4,105.9 377.2,101.1 373,96.9 C368.9,92.8 364,89.5 358.4,87.1 C352.8,84.7 346.9,83.5 340.7,83.5 C334.5,83.5 328.6,84.7 323,87.1 C317.4,89.5 312.6,92.7 308.4,96.9 C304.3,101 301,105.9 298.6,111.5 C296.2,117.1 295,123 295,129.2 C295,135.6 296.2,141.6 298.6,147.1 C301,152.6 304.2,157.4 308.4,161.5 C312.5,165.6 317.4,168.9 323,171.3 C328.6,173.7 334.5,174.9 340.7,174.9 C346.9,174.9 352.8,173.7 358.4,171.3 C364,168.9 368.8,165.7 373,161.5 C377.1,157.4 380.4,152.6 382.8,147.1 C385.2,141.5 386.4,135.6 386.4,129.2 Z" id="Shape"></path>
                    <path d="M428.7,56.6 C426.5,56.6 424.6,55.8 423.1,54.3 C421.5,52.7 420.8,50.9 420.8,48.7 L420.8,45.7 C420.8,43.5 421.6,41.6 423.1,39.9 C424.7,38.3 426.5,37.4 428.7,37.4 C430.9,37.4 432.8,38.2 434.5,39.9 C436.1,41.5 437,43.5 437,45.7 L437,48.7 C437,50.9 436.2,52.8 434.5,54.3 C432.9,55.8 430.9,56.6 428.7,56.6 Z M428.7,191 C426.5,191 424.6,190.2 423.1,188.7 C421.5,187.1 420.8,185.2 420.8,182.8 L420.8,75.6 C420.8,73.2 421.6,71.3 423.1,69.7 C424.7,68.1 426.5,67.4 428.7,67.4 C430.9,67.4 432.8,68.2 434.5,69.7 C436.1,71.3 437,73.2 437,75.6 L437,182.8 C437,185.2 436.2,187.2 434.5,188.7 C432.9,190.2 430.9,191 428.7,191 Z" id="Shape"></path>
                    <path d="M516.1,191 C507.5,191 499.5,189.4 492.1,186.2 C484.7,183 478.1,178.6 472.4,173 C466.7,167.4 462.3,160.9 459.1,153.5 C455.9,146.1 454.3,138.1 454.3,129.5 C454.3,121.1 455.9,113.1 459.1,105.6 C462.3,98.1 466.7,91.5 472.4,85.8 C478.1,80.1 484.6,75.7 492.1,72.5 C499.5,69.3 507.5,67.7 516.1,67.7 C524.5,67.7 532.5,69.3 540,72.5 C547.5,75.7 554.1,80.2 559.8,85.8 C565.5,91.5 569.9,98.1 573.1,105.6 C576.3,113.1 577.9,121.1 577.9,129.5 C577.9,138.1 576.3,146.1 573.1,153.5 C569.9,160.9 565.4,167.4 559.8,173 C554.1,178.6 547.5,183 540,186.2 C532.5,189.4 524.6,191 516.1,191 Z M516.1,83.8 C509.9,83.8 504,85 498.4,87.4 C492.8,89.8 488,93 483.8,97.2 C479.7,101.3 476.4,106.2 474,111.8 C471.6,117.4 470.4,123.3 470.4,129.5 C470.4,135.7 471.6,141.6 474,147.2 C476.4,152.8 479.6,157.6 483.8,161.8 C487.9,165.9 492.8,169.2 498.4,171.6 C504,174 509.9,175.2 516.1,175.2 C522.3,175.2 528.2,174 533.8,171.6 C539.4,169.2 544.2,166 548.4,161.8 C552.5,157.7 555.8,152.8 558.2,147.2 C560.6,141.6 561.8,135.7 561.8,129.5 C561.8,123.3 560.6,117.4 558.2,111.8 C555.8,106.2 552.6,101.4 548.4,97.2 C544.3,93.1 539.4,89.8 533.8,87.4 C528.3,85 522.4,83.8 516.1,83.8 Z" id="Shape"></path>
                </g>
                <g fill="#FFFFFF">
                    <path d="M90.7,183.6 C86.3,186 81.7,187.8 76.8,189.1 C71.9,190.4 67,191 61.8,191 C53.2,191 45.2,189.4 37.8,186.2 C30.4,183 23.8,178.6 18.1,172.9 C12.4,167.2 8,160.7 4.8,153.3 C1.6,145.9 1.13686838e-13,137.9 1.13686838e-13,129.3 C1.13686838e-13,120.9 1.6,112.9 4.8,105.4 C8,97.9 12.4,91.3 18.1,85.6 C23.8,79.9 30.3,75.5 37.8,72.3 C45.2,69.1 53.2,67.5 61.8,67.5 C70.2,67.5 78.2,69.1 85.7,72.3 C93.2,75.5 99.8,80 105.5,85.6 C111.2,91.3 115.6,97.9 118.8,105.4 C122,112.9 123.6,120.9 123.6,129.3 L123.6,182.9 C123.6,185.1 122.8,187 121.3,188.7 C119.7,190.3 117.8,191.2 115.4,191.2 C113.2,191.2 111.3,190.4 109.8,188.7 C108.2,187.1 107.5,185.1 107.5,182.9 L107.5,170.8 C102.9,175.8 97.3,180.1 90.7,183.6 Z M16.3,129.2 C16.3,135.4 17.5,141.3 19.9,146.9 C22.3,152.5 25.5,157.3 29.7,161.5 C33.8,165.6 38.7,168.9 44.3,171.3 C49.9,173.7 55.8,174.9 62,174.9 C68.2,174.9 74.1,173.7 79.7,171.3 C85.3,168.9 90.1,165.7 94.3,161.5 C98.4,157.4 101.7,152.5 104.1,146.9 C106.5,141.3 107.7,135.4 107.7,129.2 C107.7,123 106.5,117.1 104.1,111.5 C101.7,105.9 98.5,101.1 94.3,96.9 C90.2,92.8 85.3,89.5 79.7,87.1 C74.1,84.7 68.2,83.5 62,83.5 C55.8,83.5 49.9,84.7 44.3,87.1 C38.7,89.5 33.9,92.7 29.7,96.9 C25.6,101 22.3,105.9 19.9,111.5 C17.5,117 16.3,122.9 16.3,129.2 Z" id="Shape"></path>
                    <path d="M254.8,67.3 C257,67.3 258.9,68.1 260.4,69.6 C262,71.2 262.7,73 262.7,75.2 L262.7,129.1 C262.7,137.7 261.1,145.7 257.9,153.1 C254.7,160.5 250.2,167.1 244.6,172.7 C238.9,178.4 232.3,182.8 224.8,186 C217.3,189.2 209.3,190.8 200.9,190.8 C192.3,190.8 184.3,189.2 176.9,186 C169.5,182.8 163,178.4 157.4,172.7 C151.8,167 147.4,160.5 144.2,153.1 C141,145.7 139.4,137.7 139.4,129.1 L139.4,75.2 C139.4,73 140.2,71.1 141.7,69.6 C143.3,68 145.1,67.3 147.3,67.3 C149.5,67.3 151.4,68.1 152.9,69.6 C154.5,71.2 155.2,73 155.2,75.2 L155.2,129.1 C155.2,135.3 156.4,141.2 158.8,146.8 C161.2,152.4 164.4,157.2 168.6,161.4 C172.7,165.5 177.6,168.8 183.2,171.2 C188.8,173.6 194.7,174.8 200.9,174.8 C207.1,174.8 213,173.6 218.6,171.2 C224.2,168.8 229,165.6 233.2,161.4 C237.3,157.3 240.6,152.4 243,146.8 C245.4,141.2 246.6,135.3 246.6,129.1 L246.6,75.2 C246.6,73 247.4,71.1 249.1,69.6 C250.7,68.1 252.6,67.3 254.8,67.3 Z" id="Path"></path>
                    <path d="M340.8,67.3 C351.1,67.3 360.8,69.8 369.9,74.7 C376.3,78.2 381.8,82.5 386.4,87.6 L386.4,8.2 C386.4,6 387.2,4.1 388.7,2.6 C390.3,1 392.2,0.3 394.6,0.3 C396.8,0.3 398.7,1.1 400.2,2.6 C401.8,4.2 402.5,6 402.5,8.2 L402.5,129.1 C402.5,137.7 400.9,145.7 397.7,153.1 C394.5,160.5 390,167.1 384.4,172.7 C378.7,178.4 372.1,182.8 364.6,186 C357.1,189.2 349.1,190.8 340.7,190.8 C332.1,190.8 324.1,189.2 316.7,186 C309.3,182.8 302.7,178.4 297,172.7 C291.3,167 286.9,160.5 283.7,153.1 C280.5,145.7 278.9,137.7 278.9,129.1 C278.9,120.7 280.5,112.7 283.7,105.2 C286.9,97.7 291.3,91.1 297,85.4 C302.7,79.7 309.2,75.3 316.7,72.1 C324.2,68.9 332.2,67.3 340.8,67.3 Z M386.4,129.2 C386.4,123 385.2,117.1 382.8,111.5 C380.4,105.9 377.2,101.1 373,96.9 C368.9,92.8 364,89.5 358.4,87.1 C352.8,84.7 346.9,83.5 340.7,83.5 C334.5,83.5 328.6,84.7 323,87.1 C317.4,89.5 312.6,92.7 308.4,96.9 C304.3,101 301,105.9 298.6,111.5 C296.2,117.1 295,123 295,129.2 C295,135.6 296.2,141.6 298.6,147.1 C301,152.6 304.2,157.4 308.4,161.5 C312.5,165.6 317.4,168.9 323,171.3 C328.6,173.7 334.5,174.9 340.7,174.9 C346.9,174.9 352.8,173.7 358.4,171.3 C364,168.9 368.8,165.7 373,161.5 C377.1,157.4 380.4,152.6 382.8,147.1 C385.2,141.5 386.4,135.6 386.4,129.2 Z" id="Shape"></path>
                    <path d="M428.7,56.6 C426.5,56.6 424.6,55.8 423.1,54.3 C421.5,52.7 420.8,50.9 420.8,48.7 L420.8,45.7 C420.8,43.5 421.6,41.6 423.1,39.9 C424.7,38.3 426.5,37.4 428.7,37.4 C430.9,37.4 432.8,38.2 434.5,39.9 C436.1,41.5 437,43.5 437,45.7 L437,48.7 C437,50.9 436.2,52.8 434.5,54.3 C432.9,55.8 430.9,56.6 428.7,56.6 Z M428.7,191 C426.5,191 424.6,190.2 423.1,188.7 C421.5,187.1 420.8,185.2 420.8,182.8 L420.8,75.6 C420.8,73.2 421.6,71.3 423.1,69.7 C424.7,68.1 426.5,67.4 428.7,67.4 C430.9,67.4 432.8,68.2 434.5,69.7 C436.1,71.3 437,73.2 437,75.6 L437,182.8 C437,185.2 436.2,187.2 434.5,188.7 C432.9,190.2 430.9,191 428.7,191 Z" id="Shape"></path>
                    <path d="M516.1,191 C507.5,191 499.5,189.4 492.1,186.2 C484.7,183 478.1,178.6 472.4,173 C466.7,167.4 462.3,160.9 459.1,153.5 C455.9,146.1 454.3,138.1 454.3,129.5 C454.3,121.1 455.9,113.1 459.1,105.6 C462.3,98.1 466.7,91.5 472.4,85.8 C478.1,80.1 484.6,75.7 492.1,72.5 C499.5,69.3 507.5,67.7 516.1,67.7 C524.5,67.7 532.5,69.3 540,72.5 C547.5,75.7 554.1,80.2 559.8,85.8 C565.5,91.5 569.9,98.1 573.1,105.6 C576.3,113.1 577.9,121.1 577.9,129.5 C577.9,138.1 576.3,146.1 573.1,153.5 C569.9,160.9 565.4,167.4 559.8,173 C554.1,178.6 547.5,183 540,186.2 C532.5,189.4 524.6,191 516.1,191 Z M516.1,83.8 C509.9,83.8 504,85 498.4,87.4 C492.8,89.8 488,93 483.8,97.2 C479.7,101.3 476.4,106.2 474,111.8 C471.6,117.4 470.4,123.3 470.4,129.5 C470.4,135.7 471.6,141.6 474,147.2 C476.4,152.8 479.6,157.6 483.8,161.8 C487.9,165.9 492.8,169.2 498.4,171.6 C504,174 509.9,175.2 516.1,175.2 C522.3,175.2 528.2,174 533.8,171.6 C539.4,169.2 544.2,166 548.4,161.8 C552.5,157.7 555.8,152.8 558.2,147.2 C560.6,141.6 561.8,135.7 561.8,129.5 C561.8,123.3 560.6,117.4 558.2,111.8 C555.8,106.2 552.6,101.4 548.4,97.2 C544.3,93.1 539.4,89.8 533.8,87.4 C528.3,85 522.4,83.8 516.1,83.8 Z" id="Shape"></path>
                </g>
            </g>
            <g id="Group" transform="translate(0.000000, 89.000000)" fill="#FFFFFF">
                <path d="M8.3,191 C6.1,191 4.2,190.2 2.7,188.7 C1.1,187.1 0.4,185.3 0.4,183.1 L0.4,8.5 C0.4,6.3 1.2,4.4 2.7,2.7 C4.3,1.1 6.1,0.2 8.3,0.2 C10.5,0.2 12.4,1 13.9,2.7 C15.5,4.3 16.2,6.3 16.2,8.5 L16.2,183 C16.2,185.2 15.4,187.1 13.9,188.6 C12.4,190.2 10.5,191 8.3,191 Z" id="Path"></path>
                <path d="M151.2,67.3 C153.4,67.3 155.3,68.1 156.8,69.6 C158.4,71.2 159.1,73 159.1,75.2 L159.1,129.1 C159.1,137.7 157.5,145.7 154.3,153.1 C151.1,160.5 146.6,167.1 141,172.7 C135.3,178.4 128.7,182.8 121.2,186 C113.7,189.2 105.7,190.8 97.3,190.8 C88.7,190.8 80.7,189.2 73.3,186 C65.9,182.8 59.4,178.4 53.8,172.7 C48.2,167 43.8,160.5 40.6,153.1 C37.4,145.7 35.8,137.7 35.8,129.1 L35.8,75.2 C35.8,73 36.6,71.1 38.1,69.6 C39.7,68 41.5,67.3 43.7,67.3 C45.9,67.3 47.8,68.1 49.3,69.6 C50.9,71.2 51.6,73 51.6,75.2 L51.6,129.1 C51.6,135.3 52.8,141.2 55.2,146.8 C57.6,152.4 60.8,157.2 65,161.4 C69.1,165.5 74,168.8 79.6,171.2 C85.2,173.6 91.1,174.8 97.3,174.8 C103.5,174.8 109.4,173.6 115,171.2 C120.6,168.8 125.4,165.6 129.6,161.4 C133.7,157.3 137,152.4 139.4,146.8 C141.8,141.2 143,135.3 143,129.1 L143,75.2 C143,73 143.8,71.1 145.5,69.6 C147.1,68.1 149,67.3 151.2,67.3 Z" id="Path"></path>
                <path d="M186.4,191 C184.2,191 182.3,190.2 180.6,188.7 C179,187.1 178.1,185.3 178.1,183.1 L178.1,116 C178.1,109.4 179.4,103.2 181.9,97.3 C184.5,91.4 187.9,86.3 192.3,81.9 C196.7,77.5 201.8,74 207.7,71.5 C213.6,68.9 219.8,67.7 226.4,67.7 C234.6,67.7 242.3,69.6 249.3,73.5 C256.3,77.3 262.2,82.7 266.7,89.4 C271.1,82.6 276.8,77.3 283.9,73.5 C291,69.7 298.6,67.7 306.8,67.7 C313.4,67.7 319.6,69 325.5,71.5 C331.4,74.1 336.5,77.5 340.9,81.9 C345.3,86.3 348.8,91.4 351.3,97.3 C353.9,103.2 355.1,109.4 355.1,116 L355.1,183 C355.1,185.2 354.3,187.1 352.8,188.6 C351.2,190.2 349.4,190.9 347.2,190.9 C345,190.9 343.1,190.1 341.4,188.6 C339.8,187 338.9,185.2 338.9,183 L338.9,116 C338.9,111.6 338.1,107.4 336.4,103.5 C334.8,99.6 332.5,96.1 329.5,93.2 C326.6,90.3 323.1,88 319.2,86.3 C315.3,84.7 311.1,83.8 306.7,83.8 C302.3,83.8 298.1,84.6 294.2,86.3 C290.3,87.9 286.9,90.2 284,93.2 C281.2,96.1 278.9,99.6 277.1,103.5 C275.4,107.4 274.5,111.6 274.5,116 L274.5,183 C274.5,185.2 273.7,187.1 272.2,188.6 C270.6,190.2 268.8,190.9 266.6,190.9 C264.4,190.9 262.5,190.1 260.8,188.6 C259.2,187 258.3,185.2 258.3,183 L258.3,116 C258.3,111.6 257.5,107.4 255.8,103.5 C254.2,99.6 251.9,96.1 248.9,93.2 C246,90.3 242.5,88 238.6,86.3 C234.7,84.7 230.5,83.8 226.1,83.8 C221.7,83.8 217.5,84.6 213.6,86.3 C209.7,87.9 206.3,90.2 203.4,93.2 C200.6,96.1 198.3,99.6 196.5,103.5 C194.8,107.4 193.9,111.6 193.9,116 L193.9,183 C193.9,185.2 193.1,187.1 191.6,188.6 C190.5,190.2 188.6,191 186.4,191 Z" id="Path"></path>
                <path d="M381.5,56.6 C379.3,56.6 377.4,55.8 375.9,54.3 C374.3,52.7 373.6,50.9 373.6,48.7 L373.6,45.7 C373.6,43.5 374.4,41.6 375.9,39.9 C377.5,38.3 379.3,37.4 381.5,37.4 C383.7,37.4 385.6,38.2 387.3,39.9 C388.9,41.5 389.8,43.5 389.8,45.7 L389.8,48.7 C389.8,50.9 389,52.8 387.3,54.3 C385.6,55.8 383.7,56.6 381.5,56.6 Z M381.5,191 C379.3,191 377.4,190.2 375.9,188.7 C374.3,187.1 373.6,185.2 373.6,182.8 L373.6,75.6 C373.6,73.2 374.4,71.3 375.9,69.7 C377.5,68.1 379.3,67.4 381.5,67.4 C383.7,67.4 385.6,68.2 387.3,69.7 C388.9,71.3 389.8,73.2 389.8,75.6 L389.8,182.8 C389.8,185.2 389,187.2 387.3,188.7 C385.6,190.2 383.7,191 381.5,191 Z" id="Shape"></path>
                <path d="M417.5,191 C415.1,191 413.1,190.2 411.6,188.5 C410,186.9 409.3,184.9 409.3,182.7 L409.3,129.1 C409.3,120.7 410.9,112.7 414.1,105.2 C417.3,97.7 421.7,91.1 427.4,85.4 C433.1,79.7 439.6,75.3 447,72.1 C454.4,68.9 462.4,67.3 471,67.3 C479.4,67.3 487.4,68.9 494.9,72.1 C502.4,75.3 509,79.8 514.7,85.4 C520.4,91.1 524.8,97.7 528,105.2 C531.2,112.7 532.8,120.7 532.8,129.1 L532.8,182.7 C532.8,184.9 532,186.8 530.5,188.5 C528.9,190.1 527,191 524.6,191 C522.4,191 520.5,190.2 519,188.5 C517.4,186.9 516.7,184.9 516.7,182.7 L516.7,129.1 C516.7,122.9 515.5,117 513.1,111.4 C510.7,105.8 507.5,101 503.3,96.8 C499.2,92.7 494.3,89.4 488.7,87 C483.1,84.6 477.2,83.4 471,83.4 C464.6,83.4 458.6,84.6 453.1,87 C447.6,89.4 442.8,92.6 438.7,96.8 C434.6,100.9 431.3,105.8 428.9,111.4 C426.5,117 425.3,122.9 425.3,129.1 L425.3,182.7 C425.3,184.9 424.5,186.8 423,188.5 C421.6,190.2 419.7,191 417.5,191 Z" id="Path"></path>
            </g>
        </g>
    </g>
</svg>