<svg xmlns="http://www.w3.org/2000/svg" baseProfile="tiny" version="1.2" viewBox="0 0 433 429">
  <path fill="#263133" d="M154 0h18l3 1q1 3 4 5l1 1 1-1-6-5c3-2 7 3 11 2l14-3h19l2 1 7 5c2 2 1 5 3 7l1 7-1 1h-1v-5a2 2-83 0 0-1-1l-1-3h-1l1 4v1l1 4a1 1 78 0 1-1 0q-2 1 0 4v-1l1-2h1l-3 8a1 1 0 0 1-1 1q-3 1-6 6v2l6 5 1 1q0 4 3 7v5l1 1 1 2v9l-1 11 1 3 4 7v6q2 9 0 17l2 5q1 12 4 23 1 9 5 21v8l3-1a1 1 0 0 1 1 2l-1 1a1 1-27 0 0 0 1v1h2l3 8 3 6 7 17 4 8 4 14 1 1v1l-1 1 1 2-1 1h-2q0 2 2 3l4 4 1 1 4 2q1 1-1 1l-4-1a1 1 0 0 0-1 1l1 2c3 0 6 1 6 5v1l-1 1a1 1 0 0 0 0 1l1 2-3 4a1 1-68 0 0 1 1l4 2 2 4 2 6 1 1h1v-1q0-2-2-3l1-1h1l2 2 1 1 1 4a2 2 0 0 1-1 3v3l3 2-1 7-4 4h-1v-2a2 2 0 0 0-2-1q-3 3-3 7-7 3-12 8l-4 3c-4-3 0-6 2-8h2v1l-3 3q-1 1 1 1l4-3q3-4 7-6l1-1 4-6h1l1-1 1-6v-2c1-2 2-4 1-6h-1l-1 2a1 1 75 0 1-1 0h-1v-3a1 1-61 0 0 0-1l-2-4-2-4-6-4q-2-2 0-4c1-1 2-2 1-3l-2-3-2-1-1 1v8a2 2-55 0 0 1 0v1l-1 1-1-1-1-1v-1q1-4-1-8c-2-1-4 0-6-2l-5-10q-1-7-8-14c-4-4-8-5-13-5a1 1 0 0 1-1-1l3-1q8 0 14 6l4 5 2 6 1 3 5 10a1 1 73 0 0 1 0l6 1a2 2 68 0 1 1 0l4 2q2 1 1-1l-4-2q-3-2-2-5l-1-4-2-2-4-7q-2-1-2-3l-1-4-1-3a1 1-77 0 0-1-1l-5-5a2 1-13 0 0-1 0l-2-1a2 2 89 0 1-1-1l-2-1v2q7 4 9 11l3 6v1h-1l-2-3-4-8-3-3-10-5-4 1a1 1 0 0 1-2-1l-2-1-14 2-2 1h-5a1 1 0 0 1 0-1l1-1 4-1 4-1 11-2q2-1 0-1h-4a1 1 47 0 1-1 0q-2-1 1-2 2-1 2-3h-3v-1a1 1 0 0 1 0-1h3v-2l-1-1q-8-4-15-4l-2 3h-2l1 2v1h-1l-9 7q-1-1 1-2l2-4q1 0 0 0v-3h1l1 2h2l-1-5q1 0 0 0v-4h-3l-3 3a1 1 0 0 1-1-1l-1-1-2-3v-1l-2-3q0-2-2-2v-1c3-2 3-6 4-8l1-1q3-1 3-4-2 0-3 3h-1a1 1 0 0 1-1-2l1-3v-3l2-15 2-3-1-1c-2 0-3 4-3 6s-2 3-4 2l-3-2 1-1 9-6v-1l-2-15a2 2 61 0 1 1-2l1-1v-14a1 1 84 0 0-1 0l-6-3a2 2-20 0 0-1-1h-13a1 1 0 0 0-1 1l-2 12-1 17v5l-1-1v-10l1-17 1-7a1 1 4 0 0-1-1h-20a1 1 0 0 0-1 1l-1 11 1 22c0 9 1 18 3 26l-1 8c-1 3-2 10 1 13l8 9q4 6 4 14l-1 1h-1a1 1 19 0 1 0-1v-5l-4-10-2-3-3-2q-2-4-2 0l2 14v3h-1l-2-18-2-5q-1-7 1-14v-9l-2-8-1-9-1-18q0-3-2-4-9-5-11-18-2-8-1-14 0-7 7-11a2 1 81 0 0 1-1v-6c0-4-4-8-3-13q0-3 3-8v-1l-1-4q-2-4 1-7-1-12 11-12l1-1 4-7h1a1 1 0 0 1 1 0l-1 4-2 4v2q0 1 0 0l1-1c2 0 3 3 4 5v1l1-1h5l1 1-1 1 1 1 1-1a2 2 87 0 0 1 0q1-3 3-1h8l1-25a1 1 0 0 0-1-1h-2q-2 0-1 1l-1 22-1 3-2-3q1-10-1-20l-5-7q-2-2-5-2h-9l-6 2-4 3-6 8c-1 1 0 3-2 5l1 1q3 1 3 4l2 4v1l-1 1-1 1-1 2c-4-3-5-6-6-10a2 2 41 0 1 0-1l2-11c2-4 4-9 8-10l6-1Zm54 22-1 9q0 2-2 2l-3 2a1 1 44 0 0 0 1l7 3 5 1h1l3 2 6 8 1 2v1q0 3 2 4v3q0 4 2 6h1v-1l-1-5-1-1-1-4-1-3-1-3-1-3-3-3c-2-2-5-4-3-7l2-3-1-1-7-4h-3v-1l2-1c4 0 6 3 10 4h1l3-4v-1l1-6-2-7v-1l2-1-1-2h-1l-1 1a1 1 0 0 1-1-1l-1-2c-3-6-12-5-16-4-3 0-5 2-6 3-3 1-6 1-8 3h-1l-2 24 2 1h7l1-1h2a2 2 68 0 0 2 1q2 0 3-2l1-2v-9q0-2 2 0v2ZM145 9l3-5a3 1-53 0 0-2 1l-1 1a3 1-53 0 0 0 3Zm-1 19-2-4q0-2-2-1l-1 1 4 5q2 1 1-1Zm11 0-6 3a1 1-51 0 0 0 2h1v-1l5-3v-1Zm8 20h4-3q-3-3-4-8a1 1 83 0 1 2-1h1c0 3 1 5 3 6q4 2 7 1h16q7 0 12 6c2 3 1 6 1 8-2 4-2 8-1 11a2 2 14 0 0 1 2l11 5q3 1 6 5c2 1 1 4 2 6l1 1 1-1v-1l2-9 1-3 1-7-2-6-1-5c-1-5-5-14-10-15q-6-1-13-5h-35l-4-2a2 2-78 0 1 0-1l-2-2-1-2-1-1h-1l-6 5c-3 3-4 8-3 12q4 10 12 10l6 1q7 2 14 1a1 1-15 0 0 1-1q-2-4-7-5l-13-2-4-2q-2-1 0-2h2l4 1Zm20 1a1 1 58 0 1 0 1h-4l-3-1h-7v1h1l7 1h1l3 2h1q4 0 7 2a2 2 0 0 0 1 0q5 0 8 2h1l-1-3q-1-3-5-5v1l3 1q3 4-1 2l-3-1a2 2-7 0 1-1-1q-2-2-6-2h-1l-2-1v1h1Zm-37 8 2-2 1-1-1-2h-1c0 3-3 5-2 9l3 6q1 0 0 0l-1-5q-2-3-1-5Zm13 11 12 1h1l2 1 4 5h1v-2l-4-4a1 1 0 0 1 0-1h2l2 1 1 3 1-1v-2l-2-1c-1-3-4-5-8-5q-7 0-13-2l-7-5h-1l-2 2 1 1 1 3c0 6 5 6 9 6Zm19 18h-3q-2-1-1-2l2-1h4q3-4 3-10h-1a1 1 0 0 0-1 1q0 4-2 7c-2 3-5 1-7 1l-5-1h-3q-8 0-14-3a2 2-73 0 1-1-2v-2l-1 1v3l-5 4q-3 4-3 8 0 2 1 1l1-2c0-2 2-4 4-4h7l3 2 3 2 6 3a1 1 53 0 0 1 0l2-1a1 1-79 0 0-1-2q-4 0-7-2a1 1 0 0 1 1-1l3 1c3 0 5 2 8 1v1l-5 6a2 2-51 0 1-3 0l-11-7-5-1c-4 1-6 5-6 9v7c1 5 2 9 5 14l5 4h1l-1-3v-1h-1a1 1 17 0 1-1-1q4-6 3-13a2 2 0 0 1 1-2h16q4 1 8-1 3-1 6 1l1 1h24a1 1 0 0 1 1 1l-1 5a1 1 0 0 0 2 0l3-1q5 0 4-4V89l-1-5-4-3q-5-1-9-4a1 1-34 0 0-1 0h-1q4 2 4 5l1 1h3a3 3 76 0 1 3 2l3 3a1 1-27 0 1-1 1h-1l-3-2c-2-1-3-2-5-1a1 1 0 0 1-1-1c-1-2-2-5-5-4l-8 5a1 1-37 0 1-1 0v-1l1-2 7-5a1 1 0 0 0 1-2q-4-4-5-11l2-5a2 2-68 0 0-1-2l-6-1-6-1a1 1 80 0 0 0 1l1 2a1 1-33 0 1-1 1l-2 2v1l3 6v6c0 5-2 10-7 11Zm-25-10c4 2 8 2 13 2l8 2h3a2 2 0 0 0 1-2q-2-5-8-6h-12q-4 0-8-3l-1 1v1l3 4 1 1Zm75 5h-1l-1 6 1 3 1 1 1-1-1-1v-8Zm-3 18a4 1 90 0 0 2-4 4 1 90 0 0-2-4 4 1 90 0 0-1 4 4 1 90 0 0 1 4Zm-11 71-2 2h-3l-3 2v3a2 2-30 0 1 0 3q-2 1-2 3v1l1-1 1-2a1 1 0 0 1 2 0v2a1 1 0 0 0 2 1l4-3a1 1 0 0 1 1 0v1l-4 3v1l-1 4h1v4a1 1 0 0 0 1 0q3-3 8-3 6 1 11 4a1 1-74 0 0 1-1v-7q-5-10-5-21v-10l-1-26-2-10q-1-4-5-4h-1c-2 1-4 1-4 4v13l2 3v1c-1 2-3 4-2 7l1 2a2 2 58 0 1-1 1v4l-1 3a1 1 36 0 0 0 1h1a1 1 30 0 1 0 2v4a2 2 49 0 1 0 1v8Zm-9-36a1 1 0 0 0-1 0v6a1 1 0 0 0 1 0l2-3-2-3Zm9 4a1 1 105 0 0 1-1 1 1 105 0 0-1-2 1 1 105 0 0-1 1 1 1 105 0 0 1 2Zm-14 45a2 1 86 0 0 2-2 2 1 86 0 0-2-2 2 1 86 0 0-1 2 2 1 86 0 0 1 2Zm5 6 2-3-1-1-3 2-1 1v2h1l2-1Zm51 0v-2 2Zm-8 16q-2 0-3-2a1 1 0 0 0-2 1q0 2 2 2l2 1 8 3v1l2 1a1 1 12 0 0 1 0l1-4v-1l-1 1c0 2-2 3-4 1l-4-6q-1-3-4-2l-1 1 1 1q1-1 2 1a1 1 0 0 1 0 1Zm17 6a2 1 55 0 0-1-3 2 1 55 0 0-2-1 2 1 55 0 0 1 2 2 1 55 0 0 2 2Zm27 77v3a1 1 0 0 0 2 0l1-7a1 1-3 0 0-1-1q-2 0-2 2v2a1 1 0 0 1 0 1Z"/>

  <path fill="#be4625" d="m175 1 6 5-1 1-1-1q-3-2-4-5Z"/>
  <path fill="#c49855" d="M179 30q1 3-1 3-2-2-3 1a2 2 87 0 1-1 0l-1 1-1-1 1-1-1-1h-5l-1 1v-1c-1-2-2-5-4-5q-1 1-1-1l2-4 1-4a1 1 0 0 0-1 0h-1l-4 7-1 1q-12 0-11 12l-2-5 1-2 1-1 1-1v-1l-2-4q0-3-3-4l-1-1c2-2 1-4 2-5l6-8 4-3 6-2h9q3 0 5 2l5 7q2 10 1 20Zm-33-14 3-4v-1q-3 2-4 5h1Zm4-3 1 2q1 0 0 0l-1-2Zm1 11-2-2-2-2 2 2 2 2Zm60 2h-2a1 1-79 0 1 0-1l-1-3v-2q-2-2-2 0v9l-1 2q-1 2-3 2a2 2 68 0 1-2-1h-2l-1 1h-7l-2-1 2-24h1c2-2 5-2 8-3 1-1 3-3 6-3 4-1 13-2 16 4l1 2a1 1 0 0 0 1 1l1-1h1l1 2-2 1v1l2 7-1 6v1l-3 4h-1c-4-1-6-4-10-4Z"/>
  <path fill="#be4625" d="M145 9a3 1-53 0 1 0-3l1-1a3 1-53 0 1 2-1l-3 5Z"/>
  <path fill="#dfd6b9" d="M186 33h-5l1-3 1-22q-1-1 1-1h2a1 1 0 0 1 1 1l-1 25Z"/>
  <path fill="#be4625" d="M145 16q1-3 4-5v1l-3 4h-1Z"/>
  <path fill="#c49855" d="m231 21-1 1h-1l-1 2v1q-2-3 0-4a1 1 78 0 0 1 0l-1-4v-1l-1-4h1l1 3a2 2-83 0 1 1 1v5h1Z"/>
  <path fill="#be4625" d="m150 13 1 2q1 0 0 0l-1-2Z"/>
  <ellipse fill="#be4625" rx="2.4" ry=".3" transform="rotate(42 46 206)"/>
  <path fill="#be4625" d="m208 22 1 3a1 1-79 0 0 0 1h2l-2 1v1h3l7 4 1 1-2 3c-2 3 1 5 3 7l3 3 1 3 1 3 1 3 1 4 1 1 1 5v1h-1q-2-2-2-6v-3q-2-1-2-4v-1l-1-2-6-8-3-2h-1l-5-1-7-3a1 1 44 0 1 0-1l3-2q2 0 2-2l1-9Z"/>
  <path fill="#dfd6b9" d="m142 24 2 4q1 2-1 1l-4-5 1-1q2-1 2 1Z"/>
  <path fill="#be4625" d="M161 26q0 2 1 1l-1 1q0 1 0 0v-2Z"/>
  <path fill="#c49855" d="M155 28v1l-5 3v1h-1a1 1-51 0 1 0-2l6-3Z"/>
  <path fill="#dfd6b9" d="M223 88v1h-2c-1-2 0-5-2-6q-3-4-6-5l-11-5a2 2 14 0 1-1-2c-1-3-1-7 1-11 0-2 1-5-1-8q-5-6-12-6h-16q-3 1-7-1c-2-1-3-3-3-6h-1a1 1 83 0 0-2 1q1 5 4 8h-1l-4-1h-2q-2 1 0 2l4 2 13 2q5 1 7 5a1 1-15 0 1-1 1q-7 1-14-1l-6-1q-8 0-12-10c-1-4 0-9 3-12l6-5h1l1 1 1 2 2 2a2 2-78 0 0 0 1l4 2h35q7 4 13 5c5 1 9 10 10 15l1 5 2 6-1 7-1 3-2 9Z"/>
  <path fill="#be4625" d="m179 30 2 3h5-8q2 0 1-3ZM2 47v1l-1-1 1-1q2-1 0 1Zm162 1h3-4 1Zm19 1h-1v-1l2 1h1q4 0 6 2a2 2-7 0 0 1 1l3 1q4 2 1-2l-3-1v-1q4 2 5 5l1 3h-1q-3-2-8-2a2 2 0 0 1-1 0q-3-2-7-2h-1l-3-2h-1l-7-1h-1v-1h7l3 1h4a1 1 58 0 0 0-1ZM1 51l1 1H1v-1Zm145 6q-1 2 1 5l1 5q1 0 0 0l-3-6c-1-4 2-6 2-9h1l1 2-1 1-2 2Z"/>
  <path fill="#dfd6b9" d="M179 68v1l-2-1h-18c-4 0-9 0-9-6l-1-3-1-1 2-2h1l7 5q6 2 13 2c4 0 7 2 8 5Z"/>
  <path fill="#c49855" d="M214 89h4v14q1 4-4 4l-3 1a1 1 0 0 1-2 0l1-5a1 1 0 0 0-1-1h-24l-1-1q-3-2-6-1-4 2-8 1h-16a2 2 0 0 0-1 2q1 7-3 13a1 1 17 0 0 1 1h1v1l1 3h-1l-5-4c-3-5-4-9-5-14v-7c0-4 2-8 6-9l5 1 11 7a2 2-51 0 0 3 0l5-6q2-3 6-3c5-1 7-6 7-11v-6l-3-6v-1l2-2a1 1-33 0 0 1-1l-1-2a1 1 80 0 1 0-1l6 1 6 1a2 2-68 0 1 1 2l-2 5q1 7 5 11a1 1 0 0 1-1 2l-7 5-1 2v1a1 1-37 0 0 1 0l8-5c3-1 4 2 5 4a1 1 0 0 0 1 1c2-1 3 0 5 1l3 2Z"/>
  <path fill="#be4625" d="M177 68h-2a1 1 0 0 0 0 1l4 4v2h-1l-4-5-2-1h-1l-12-1h18Zm2 0 2 1v2l-1 1-1-3v-1Z"/>
  <path fill="#dfd6b9" d="M166 78c-5 0-9 0-13-2l-1-1-3-4v-1l1-1q4 3 8 3h12q6 1 8 6a2 2 0 0 1-1 2h-3l-8-2Z"/>
  <path fill="#be4625" d="M178 86q-4 0-6 3v-1c-3 1-5-1-8-1l-3-1a1 1 0 0 0-1 1q3 2 7 2a1 1-79 0 1 1 2l-2 1a1 1 53 0 1-1 0l-6-3-3-2-3-2h-7c-2 0-4 2-4 4l-1 2q-1 1-1-1 0-4 3-8l5-4v-3l1-1v2a2 2-73 0 0 1 2q6 3 14 3h3l5 1c2 0 5 2 7-1q2-3 2-7a1 1 0 0 1 1-1h1q0 6-3 10h-4l-2 1q-1 1 1 2h3Zm40 3h-4 1a1 1-27 0 0 1-1l-3-3a3 3 76 0 0-3-2h-3l-1-1q0-3-4-5h1a1 1-34 0 1 1 0q4 3 9 4l4 3 1 5Zm10-8v8l1 1-1 1-1-1-1-3 1-6h1Zm-5 7v1l-1 1-1-1h2v-1Z"/>
  <ellipse fill="#c49855" rx="4" ry="1.4" transform="rotate(90 65 160)"/>
  <path fill="#dfd6b9" d="m176 130-1 12-2 5v1l2 3c2 5 0 10-4 13q-4 2-6 8l-1 6c1 6 3 11 7 17l3 5c0 4 1 8-3 10v-1q0-8-4-14l-8-9c-3-3-2-10-1-13l1-8c-2-8-3-17-3-26l-1-22 1-11a1 1 0 0 1 1-1h20a1 1 4 0 1 1 1l-1 7-1 17Z"/>
  <path fill="#dfd6b9" d="m197 184-1 4q-2-5-6-8c-2-2-3-4-2-6l6-15-1-1q-4 2-6 6l-4 9c-2 6 1 8 4 12l1 3v9q-1 2-2 0-4-3-7-8l-2-3c-3-2-6-7-5-11l2-6 3-2q4-7 5-15c1-2-3-5-4-6a2 2-63 0 1-1-2v-8l1-17 2-12a1 1 0 0 1 1-1h13a2 2-20 0 1 1 1l6 3a1 1 84 0 1 1 0v14l-1 1a2 2 61 0 0-1 2l2 15v1l-9 6-1 1 3 2c2 1 4 0 4-2s1-6 3-6l1 1-2 3-2 15v3l-1 3a1 1 0 0 0 1 2h1q1-3 3-3 0 3-3 4l-1 1c-1 2-1 6-4 8v1q2 0 2 2Zm-20 2 1-1-1-15a1 1 86 0 0 0-1 1 1 86 0 0-1 1l1 15v1Zm38-4v-1a1 1 58 0 1 1 1h2l3-4a2 2 0 0 0 0-2l-4-4a1 1-48 0 1 0-1l1-1h1l-1-1a1 1 0 0 0-2 0l-2 1v-8a2 2 49 0 0 0-1v-4a1 1 30 0 0 0-2h-1a1 1 36 0 1 0-1l1-3v-4a2 2 58 0 0 1-1l-1-2c-1-3 1-5 2-7v-1l-2-3v-13c0-3 2-3 4-4h1q4 0 5 4l2 10 1 26v10q0 11 5 21v7a1 1-74 0 1-1 1q-5-3-11-4-5 0-8 3a1 1 0 0 1-1 0v-4h-1l1-4v-1l4-3Z"/>
  <path fill="#be4625" d="M176 130v10l1 1v3a2 2-63 0 0 1 2c1 1 5 4 4 6q-1 8-5 15l-3 2-2 6c-1 4 2 9 5 11l2 3q3 5 7 8 1 2 2 0v-9l-1-3c-3-4-6-6-4-12l4-9q2-4 6-6l1 1-6 15c-1 2 0 4 2 6q4 3 6 8l1-4 2 3v1l2 3 1 1a1 1 0 0 0 1 1l3-3q2 5 0 6-3 2-3 5v-5l-1-2h-1q-2-1-2-3l-1-1a1 1 0 0 0-1 1q0 3 3 4l2 2-1 1q-2 0-3-2l-1 1 3 4a1 1-46 0 1 0 2c-2 4 0 10 3 13h1l-1-2-2-7 1-4 2 1q-2 1-1 2l9-7h1v-1q2-1 1-2l2-3q7 0 15 4l1 1v2h-3a1 1 0 0 0 0 1v1l-8-2h-1v1l2 1a1 1 0 0 1-1 1l-2 2a1 1 70 0 0 0 1l1 1h-2c-2 0-7 2-9 4v1h2l2-2 11-2q4 0 1-3l-2 1 2-1h1l2-1 2 1q-3 1-1 2a1 1 47 0 0 1 0h4q2 0 0 1l-11 2-4 1-4 1-1 1a1 1 0 0 0 0 1h5l7 3 2 1 2 1a1 1 50 0 1 1 0l8 5a1 1 0 0 1-1 1h-5l-9-2c-2-1-3-2-5-1q-3 2-7 2v1l1 1 5-1a1 1 0 0 1 0 2h-1q-4 2-9 0l-6-4-2 1-2 1-1-1h-3l-4-1-2-2q-2-1-1 1l-1 6-4 4h-1q-3 4-8 5a1 1 62 0 1-1 0l-2-2v-1l-1-3v-2l2-3h2l3 3h2v-1l-2-2a2 2 0 0 1-1-3l2-7v-1a1 1 0 0 0-1 0q-2 7-9 7l-1 1v3h1v1q-2 2 0 3a1 1-63 0 1 0 1q0 3-3 6l-1 4-1-5-1-1-2-1q0-1 0 0v2l1 5-1 2-4 2a2 2 0 0 0 1 3h1l-4 1h-1l-2-1 3-4 3-6 1-3v-1l-1-2a1 1 0 0 1 1 0q4-1 7 2l1 1v-1q-2-5-7-5l-3-1h-2l-1-1-1-1-1 2a1 1 0 0 1-1 0h-1v-1l1-3h4q1 1 1-1l-1-1h-1l1-1a1 1 0 0 0 0-1l-6-3-9-2-7 1-6 1c-3 0-6 3-8 6v1l5 2h3q2 0 2-2h1v1a1 1-15 0 1 0 1q-3 2-3 4l-1 1-4 3h-1q-3 1-2 4h-1a1 1 0 0 1 0-1l-2-3-4-6-6-4h-1q-1-2-2-1-1 0 0 0v-1l7-4 13-13q5-5 13-6l1-1q2-2 5-2t1-2l-6-1-4-2-1-1-1-1h-4l-1-1-1 1-1-1-4-4q-3-3 1-1l2 3h1v-1l-1-6q1-3-1-2l-2 1q0 1 0 0l3-3 3-3 7 6a1 1 0 0 1 0 2q-2 0-2 3a2 2 0 0 0 2 2q5 0 9 2l8 1v-1q-4-8-1-17c1-5 4-8 3-13q-2-7-7-10a1 1 0 0 1 0-2q4-2 7 0 2 0 3-2l1 9 2 8v9q-2 7-1 14l2 5 2 18h1v-3l-2-14q0-4 2 0l3 2 2 3 4 10v5a1 1 19 0 0 0 1h1l1-1v1c4-2 3-6 3-10l-3-5c-4-6-6-11-7-17l1-6q2-6 6-8c4-3 6-8 4-13l-2-3v-1l2-5 1-12Zm-22 47a2 1 96 0 0 1-2 2 1 96 0 0-1-2 2 1 96 0 0-1 2 2 1 96 0 0 1 2Zm-37 36 8-5 3-2q7-4 15-6h2a1 1-86 0 0 2-1l-3-3-5 2h-1c-1 3-3 2-5 3q-7 2-11 5l-8 7-4 5-1 3 1 1h1c2-3 3-7 6-9Z"/>
  <path fill="#dfd6b9" d="m205 134 2 3-2 3a1 1 0 0 1-1 0v-6a1 1 0 0 1 1 0Z"/>
  <ellipse fill="#dfd6b9" rx="1.4" ry=".8" transform="rotate(105 55 150)"/>
  <path fill="#be4625" d="M215 182v-1a1 1 0 0 0-1 0l-4 3a1 1 0 0 1-2-1v-2a1 1 0 0 0-2 0l-1 2-1 1v-1q0-2 2-3a2 2-30 0 0 0-3v-3l3-2h3l2-2 2-1a1 1 0 0 1 2 0l1 1h-1l-1 1a1 1-48 0 0 0 1l4 4a2 2 0 0 1 0 2l-3 4h-2a1 1 58 0 0-1-1v1Zm-38 4v-1l-1-15a1 1 86 0 1 1-1 1 1 86 0 1 0 1l1 15-1 1Z"/>
  <ellipse fill="#c49855" rx="2.2" ry=".8" transform="rotate(96 -2 157)"/>
  <ellipse fill="#be4625" rx="1.8" ry="1.4" transform="rotate(86 3 198)"/>
  <path fill="#be4625" d="m205 189-2 1h-1v-2l1-1 3-2 1 1-2 3Z"/>
  <ellipse fill="#be4625" rx="1.3" ry=".4" transform="rotate(87 29 229)"/>
  <path fill="#c49855" d="m204 204-2-1 1-2q0-3 3-5 2-1 0-6h3v4q1 0 0 0l1 5h-2l-1-2h-1v3q1 0 0 0l-2 4Z"/>
  <path fill="#263133" d="m203 201-1 2-1 4 2 7 1 2h-1c-3-3-5-9-3-13a1 1-46 0 0 0-2l-3-4 1-1q1 2 3 2l1-1-2-2q-3-1-3-4a1 1 0 0 1 1-1l1 1q0 2 2 3h1l1 2v5Z"/>
  <path fill="#be4625" d="M97 196a1 1 0 0 0-1 0h-2l3-1a2 2 87 0 1 1 1l2 2 2 1 2 1q1 2-1 1c-2 0-3 2-4 3a2 2 0 0 1-2 1l-6-5-1-1 1-2 1 1-1 1a1 1 29 0 0 0 1h2a1 1-73 0 0 1 0v-2h3v-2Z"/>
  <path fill="#c49855" d="M214 196q1 1-1 2l-1-2h2Zm-97 17c-3 2-4 6-6 9h-1l-1-1 1-3 4-5 8-7q4-3 11-5c2-1 4 0 5-3h1l5-2 3 3a1 1-86 0 1-2 1h-2q-8 2-15 6l-3 2-8 5Zm112-11h3q0 2-2 3l-2-1-2 1h-1l-2 1-3 1-1-1a1 1 70 0 1 0-1l2-2a1 1 0 0 0 1-1l-2-1v-1h1l8 2Z"/>
  <path fill="#be4625" d="M248 205a1 1 0 0 0 0-1q-1-2-2-1l-1-1 1-1q3-1 4 2l4 6c2 2 4 1 4-1l1-1v1l-1 4a1 1 12 0 1-1 0l-2-1v-1l-8-3-2-1q-2 0-2-2a1 1 0 0 1 2-1q1 2 3 2Z"/>
  <path fill="#263133" d="m96 219 13-16a2 1-51 0 1 2-1 2 1-51 0 1-1 2l-13 15h-1Zm325 69-1 4a1 1 0 0 1-2 0l1-1v-4h-1l-2 3v2h-1l-2-1q0-1 0 0v2l-1 2q-1 2 1 1h1v1l-1 1a1 1 82 0 0-1 1l-1 4-1 1c1 2 0 2-1 3l-1 3v1l-1 4-3-5-15-16-15-16-11-11-8-8c-6-6-12-10-19-14l-8-4c0 2 1 3 3 4l5 3c3 2 7 3 9 6l11 9 5 6 12 11 17 20 14 14q2 1 2 4l-1 5v1l-1 3h1q1 3-1 5-2 3-2 7l-4 5q-4 4-1-1l2-2q2-2 1-4v-8l-5-11-5-10-2-4-4-6-1 1 4 9q-4-3-5-8v-1h-2l1 3a1 1 0 0 1 0 1h-1l-11-11-19-17-9-10q-6-5-13-8l-1 1c-2 2-4 1-7 1l-1 1 1 1 7 2q12 6 17 17 2 4-2 9h-2l1-3-1-6q-3-6-10-11c-3-2-7-5-11-4l-2-1h-1l-1 3-1 3v2h8q7 3 9 12l-1 2a1 1 0 0 1-1-1c-1-4-3-8-7-10q-4-2-2 1c2 2 5 4 3 8-2 2-5 1-7 0-3-1-2-5-2-8a2 2-74 0 0-1-1h-1l-2 6 1 1 3 6q3 4 8 5v1h-3q-6-3-9-8-1-2-2 0l-5 10a2 2-56 0 1-2 0l-2-1h-1l-1 1v6q0 3-3 7l-1 6v1l-4 6-1 6-4 17-1 5v3l13 17 21 18 4 3 5 1 4 1h10l17-5 9-3 3-1 1 1-7 3c-8 2-16 7-24 8q-10 1-20-3l-5-3h-1v2h-2l-1 1v1l1 1h6l5 2 14 2 7 1 1-1h1l1 1v2h3l3-2 8-2h2l8-3 3-1 2 1 2-1q6-5 10-12 1-3 4-5v-1l1-1h1l-1 2-5 9-6 6-1 1 1 1v2l-7 1c-5 2-2 7-2 10l4 20-1 2h-1l-2-12-1-2-2-13q-1-3-3-2h-1q-2 2-1 3l2 13 1 4q2 5 1 9h-22v-2a1 1-90 0 0-1-1c-2-1-5-1-7-3-3-2-5-2-4-7l-3 1a1 1-2 0 0-1 0v2q0 1 0 0l-2-1a1 1 0 0 0-2 0v3l2 8h-45v-1q2-3 0-6v-7l-1-4v-11a1 1 14 0 0 0-1l-2-1-1 1 2 19-1 1v1a2 2 0 0 0 0 1q2 2 1 5h-1v-1l-1-1-1-3v-2a1 1-84 0 1 0-1l1-1v-3l-1-3q-2-1-1-3v-1l-2-4q-1-2-3-2-2-2-6-2l-3 2a1 1 0 0 1-1 0v-1l4-5q0-2 1 0l1 1h1l1-1v-5l-1-1-4-3q0-2-1-1l-9 1h-1l1 5v1q0 3-3 3c-4-1-8-3-9-7q-5-14-5-25v-2a2 2-57 0 0-1-2l-7-4c-4-2-6-6-9-8l-3-4c-1-4-1-11 3-14l9-7 5-3 2-4 1-8q0-3-3-7a2 2-32 0 0-3-1c-3 2-10 4-11-1h3q3 1 6-1l1-1q-4-3-7-1c-8-3-11-12-8-20l-1-1q-6 0-9-6l-5-5c-3-2-4-6-7-9q-4-2-7-6a1 1 0 0 0-1 0l-8 5-1 1c-6-2-11-4-16-9a1 1 0 0 0-1 0l-3 3h-1a2 2 0 0 1-1-3l4-2 1-2-1-5v-2q0-1 0 0l2 1 1 1 1 5c2 4 7 8 12 8l1-1 4-1a1 1 0 0 0 1 0v-1l1-1h2l2-2 3-3 3-4q2-3 6-5l1 1-3 2-7 10 5 5 1 3 1 1 1-1-1-3a1 1 48 0 1 0-1l4-6q1-2 3 0h1q2 2 0 5-2 4-4 4v6h1q4-3 6-8l2-5c1-3-1-5-1-7-1-3-3-6-5-7h-8l-8 4q-3 1-5 5l-5 5a1 1 0 0 1-1 0v-1l-1-1h-2v-1l7-5 3-2q2-3 6-4l6-2c3-1 7-2 10 0 2 1 4 1 5 3 2 1 3 4 4 6v1a1 1 0 0 1-2 0l-2-3q0-1 0 0-1 2 1 4v1l1 1 1 2-1 2-2 3q-2 6-8 11a1 1 0 0 0 0 1l1 1q1-2 3-2h1l-1 3v1h3l10-4q6-4 11-10l1-1h1q2-1 1 1l-6 7-6 7-5 3h-7l-1 1q2 4 6 4h5l13-6v1l-11 7a1 1 0 0 0-1 1v1l1 1-1 3-1 5c1 4 5 7 8 8l4 2q2 1 2-1l1-2q1-2 1 0l1 3c1 3 5 3 7 6l3 14c1 4 1 9-3 11l-9 4-3 2-6 2c-2 2-5 3-4 6 2 6 6 8 12 10l5 1 6-2c8-1 15-9 18-15q1-2 1 0l-2 5c-2 3-4 7-8 10-3 2-6 5-10 6l-8-2-2-1-1-1h-3l-1-1h-1l-1-1q-1 0 0 0l4 4 11 4q7 2 12-2 4-2 7-9h2v2q-2 4-6 7c-1 1-2 3-1 4a1 1 0 0 0 2 0l4-4q3-2 4-6a2 2-59 0 0-1-1q-2-3-1-6 0-3 2-3l1 5v3l1 3-7 9-8 4q-2 1-2-1a1 1 86 0 1 1-1l2-1-1-1a1 1-65 0 0-2 0q-1 3-4 2h-6v10l2 4v2q0 1 0 0l1-1v1h1l-1-6-1-2v-5a1 1-89 0 1 1-1h1l1 1-1 2h1l1-4a2 2 0 0 1 3 0q1 2 3 2v1q3 1 5-1h1l2-2 8-8a1 1 0 0 1 1 0v9q2 6 6 10l1 1q0 5 4 6l4 2q0 1 0 0l-1-3a2 2 77 0 0-1-1q-4-1-3-4a1 1 29 0 0 0-1c-1-2-4-5-2-6v-1l-2-1 1-1 2-1 1-1a1 1-61 0 1 2-1l3 3a1 1-45 0 1 0 2h-1l1-2h1v1-1h1v-1l-7-8a2 2 0 0 1 0-3q2-2 2-5v-5l2-12 2-7 2-3a1 1 3 0 1 1 0l3-3v-1l1-4 2-6 1-4v-6l1-1 3-2 1-3 1-4 4-4v-1l-1 1h-1v-1l1-2 6-6-1-2 4-6 3-7q9-21 22-39 2-3 5-4 10-6 22-10l3-1 27-1 7 1 14 1h11c4 1 3 8 2 11v4l-1 2v12l-1 13-1 4-1 4-2 6-1 7v6l-1 8v7Zm-21-84a1 1 2 0 0-2-1 1 1 2 0 0-1 1 1 1 2 0 0 1 0 1 1 2 0 0 2 0Zm26 12 2-2c0-2 0-6-3-7a1 1 0 0 0-1 2q2 3 1 6a1 1 0 0 0 1 1Zm-226 31a2 1 119 0 0 2-1 2 1 119 0 0 0-2 2 1 119 0 0-2 1 2 1 119 0 0 0 2Zm-21 5a2 1 45 0 0 0-2 2 1 45 0 0-2-1 2 1 45 0 0 0 2 2 1 45 0 0 2 1Zm239 12h-1l1 2h1l1-1v-1h-2Zm-101 17v1h4v-1l-3-5h-1v5Zm-10-1a1 1 117 0 0 1-1 1 1 117 0 0 1-2 1 1 117 0 0-2 1 1 1 117 0 0 0 2Zm-2 6v-1l-2 2h-1l-1 6v1l2-1 2-7Zm-70 11a1 1 0 0 0-1-2 1 1 0 0 0-2 2 1 1 0 0 0 2 1 1 1 0 0 0 1-1Zm6 6-1-2-1-2h-1v1l2 2v1l-1 2v1h1v1l-1 10q-1 3-4 4l-4 3-8 6-2 2 1 1 6-4 3-1h1l8-4 4-3q2-3 0-7v-2l-3-9Zm56 72 1-1-1-1v2Zm-17 8v1l1 1h2l1 1 4 5a1 1 0 0 0 1 0l1-2h-1l-1-1-1-1q-1-2-3-2l-1-1-3-3q-2-2-1 1l1 1Zm10 10q-1-2-2 0v2a2 2 0 0 0 1 2h3a1 1 53 0 0 0-1l-1-2a2 2 4 0 1-1-1Zm-9 2a1 1 68 0 0 1-1 1 1 68 0 0-2-1 1 1 68 0 0 0 1 1 1 68 0 0 1 1Zm78 6-8 2-8 1a1 1 84 0 0-1 1v3q-1 6 5 8l12 6 2 3 3 2q2 1 2-1l-5-21v-5l-2 1Zm-19 8-1-4q-1-2-3-2c-1 2-2 4 0 6l3 3q2 2 2-1l-1-2Zm-7 2a2 1 68 0 0 1-2 2 1 68 0 0-2-1 2 1 68 0 0 0 2 2 1 68 0 0 1 1Zm-4 4h-3v2q3 1 4-1l1-1 1-3h-1l-1 2q1 2-1 1Zm-34 5q-1-1-1 1v3l1 1a1 1 0 0 0 1-1l-1-4Zm66 7-8-6a5 3 38 0 0 1 5l1 1a5 3 38 0 0 6 0Z"/>
  <ellipse fill="#dfd6b9" rx="1.3" ry=".7" transform="rotate(2 -5108 10476)"/>
  <path fill="#263133" d="m223 206 2-1q3 3-1 3l-11 2-2 2h-2v-1c2-2 7-4 9-4h2l3-1Z"/>
  <ellipse fill="#dfd6b9" rx="2.1" ry=".7" transform="rotate(55 -68 356)"/>
  <path fill="#dfd6b9" d="M425 215q1-3-1-6a1 1 0 0 1 1-2c3 1 3 5 3 7l-2 2a1 1 0 0 1-1-1Z"/>
  <path fill="#c49855" d="M260 228q0 2-1 1l-4-5q-6-6-14-6l-3 1a1 1 0 0 0 1 1c5 0 9 1 13 5q7 7 8 14l5 10c2 2 4 1 6 2q2 4 1 8-4 5-7 0-4-11-14-18l-10-6h-1v1l4 3q14 6 19 20v1l-1 3a3 3-13 0 1-1 3l-4 1v2c3 2 1 4 2 6l2 6q1 2 3 1 3 0 4-3l1-6a2 2 0 0 1 1-1l2-1 1-1q2-3 7-3h1v1h2l1-2 2 4 2 4a1 1-61 0 1 0 1v6l-1 2-2 6c-3 4-8 8-13 10l-2 1-7 3-2-1-2-2a1 1 63 0 1 0-1q6-1 9-5l5-8 6-7c1-1 1-4-1-5v-1l2-2v-1h-1c-3 2-3 4-5 6l-7 10-4 4-9 5h-1c1-6-2-13-7-15s-9-2-13 1v1h2q4-2 10 0v1l-4 4a1 1 52 0 1-1 0l-1-3h-1l-1 1 1 3v1l-1 4h3a1 1 69 0 1 1 1q4 4 11 5l4-1 9-7a1 1-36 0 1 1 1v1a1 1-2 0 1 0 1l-5 2-3 2h-1l-3 3q-2 5-1 11l3 1-7 6-4 11-6 9-8 4q-2 2 2 1c10-2 14-9 17-18 3-6 7-11 13-13l2 1 1 2 1-1v-4l-1-3a1 1 0 0 1 0-1q1-4 4-6h1l1 1c-2 2-6 5-2 8l4-3q5-5 12-8 3 8-4 14l-4 5a1 1 23 0 1-1 0q-2 0-1-1l3-7 1-2h-1l-1 1q-2 4-6 5h-1l-2-1 1 2 1 3v4q2 3 2 7l1 8v8l-1-1v-7l-1-2h-1c0-2 1-4-1-5a1 1 84 0 0-1-1l-1-1q2-3-2-4-1-1-1 1l1 3v3l-1 1 2 4-2 2q-2 0-2 3l-3 4q-3 7-7 9-5 4-12 2l-1-1v-1h3c4-1 7-4 10-6 4-3 6-7 8-10l2-5q0-2-1 0c-3 6-10 14-18 15l-6 2-5-1c-6-2-10-4-12-10-1-3 2-4 4-6l6-2 3-2 9-4c4-2 4-7 3-11l-3-14c-2-3-6-3-7-6l-1-3q0-2-1 0l-1 2q0 2-2 1l-4-2c-3-1-7-4-8-8l1-5 1-3-1-1v-1a1 1 0 0 1 1-1l11-7v-1l-13 6h-5 1l-1-3h-1l-3-1 6-1 5-3 6-7 6-7q1-2-1-1h-1l-1 1q-5 6-11 10l-10 4h-3v-1l1-3h-1q-2 0-3 2l-1-1a1 1 0 0 1 0-1q6-5 8-11l2 1 3-1 19-4h3a1 1-66 0 1 1 2l-2 4a1 1 14 0 0 1 0l2-3a1 1 0 0 1 2 0q3 9-3 17t-12 13h-3v1l4-1q11-6 16-16 2-4 2-10c0-5-2-8-7-9s-9 0-15 1l-1-5a1 1-15 0 1 1-1l6-5 1-2v-1l-5 3-9 5h-2c-1-2-2-5-4-6-1-2-3-2-5-3-3-2-7-1-10 0l-6 2q-4 1-6 4l-3 2-7 5v1h2l1 1v1a1 1 0 0 0 1 0l5-5h2l2 4-2 2h-2l-1 1v1a1 1 0 0 1-1 0l-4 1-1 1c-5 0-10-4-12-8l1-4q3-3 3-6a1 1-63 0 0 0-1q-2-1 0-3v-1h-1v-3l1-1q7 0 9-7a1 1 0 0 1 1 0v1l-2 7a2 2 0 0 0 1 3l2 2v1h-2l-3-3h-2l-2 3v2l1 3v1l2 2a1 1 62 0 0 1 0q5-1 8-5h1l4-4 1-6q-1-2 1-1l2 2 4 1h3l1 1 2-1 2-1 6 4q5 2 9 0h1a1 1 0 0 0 0-2l-5 1-1-1v-1q4 0 7-2c2-1 3 0 5 1l9 2h5a1 1 0 0 0 1-1l-8-5a1 1 50 0 0-1 0l-2-1-2-1-7-3 2-1 14-2 2 1a1 1 0 0 0 2 1l4-1 10 5 3 3 4 8Zm-7 43h1l1-1h-2l-7 3-1 1 1 1 3-2 3-2h1Zm-23 9-1 1v1h2v-1l-1-1Z"/>
  <path fill="#be4625" d="M259 229q1 1 1-1l2 3h1v-1l-3-6q-2-7-9-11v-2l2 1a2 2 89 0 0 1 1l2 1a2 1-13 0 1 1 0l5 5a1 1-77 0 1 1 1l1 3 1 4q0 2 2 3l4 7 2 2 1 4q-1 3 2 5l4 2q1 2-1 1l-4-2a2 2 68 0 0-1 0l-6-1a1 1 73 0 1-1 0l-5-10-1-3-2-6Z"/>
  <ellipse fill="#c49855" rx="1.6" ry=".5" transform="rotate(-31 438 -69)"/>
  <path fill="#c49855" d="M152 222q-4 1-6 5a1 1 0 0 1-2 0l-2-3h-1v6l-2 4a1 1-77 0 0 1 0q3 2 5-1 3-3 8-2l1 2-1 4a2 2 0 0 1-2 1l-3 1a1 1 0 0 0 0 1v2l-7 3c-5 1-8-3-11-6a1 1-39 0 1 0-2l8-7v-1a1 1 0 0 0-1 0l-7 6a1 1 0 0 1-1 0v-6h-1c-2 2-1 5-1 7v1l-5 3-8 4h-3q0-1 0 0l-1 1-1 1q-4 2-9 2c-1 1-3 2-5 0q-4-3-6-8a1 1 0 0 0-2 0q-2 2 0 3l1 3v2q3 4 8 5a2 2-22 0 1 1 0l2 1h1v2c-3 3-7 1-9-2h-2a1 1 0 0 0 0 2q3 5 9 4l1 1v4l-1 1q-1 1-1-1l1-1-1-1c-7-1-14-7-14-15 0-4 1-9 5-12a1 1 59 0 1 1 1q4 9 15 8l3-1q1-2-1-1-9 2-14-6-1-2 1-3 2-3 7-3a2 2-24 0 1 1 0q1 2 3 0l1-1h1a1 1-65 0 1 0 1v4l-4 5v1l1-1 6-6 1-1v-5l4 6 2 3a1 1 0 0 0 0 1h1q-1-3 2-4h1l4-3 1-1q0-2 3-4a1 1-15 0 0 0-1v-1h-1q0 2-2 2h-3l-5-2v-1c2-3 5-6 8-6l6-1 7-1 9 2 6 3a1 1 0 0 1 0 1l-1 1Zm-12 21v-1l-6-5-1 1 6 5h1Z"/>
  <ellipse fill="#c49855" rx="2.9" ry=".4" transform="rotate(-44 321 -5)"/>
  <path fill="#263133" d="M152 222h1l1 1q0 2-1 1h-4l-1 3v1h1a1 1 0 0 0 1 0l1-2 1 1 1 1h2l3 1q5 0 7 5v1l-1-1q-3-3-7-2a1 1 0 0 0-1 0l1 2v1l-1 3-3 6-3 4q-3 2-8 1-5 0-8-2l-6-8h-1q-8 5-16 7l-1 1-2 2v1c1 4-2 5-2 8-2 7-1 12-2 19l-1 3h1q6-4 15-5c5 0 11 2 13 8 3 9 0 17-3 26l-1 5c-1 4-5 9-4 14q0 6 6 5c4 0 5-3 7-6a1 1 0 0 1 2 1c1 3 5 3 7 3q3 0 5-2t1 1c-1 3-9 5-12 2l-1-1-1 1c-2 5-7 6-12 5-4-1-7-6-6-10l3-9 2-7 3-8 1-6v-14c-1-4-5-6-9-6q-5 1-9 4h-4l-2 1-1 5-2 6 2 5q3 5 2 12-2 1-2-1l-1-5-1-1-2-1-1-3-2-12 1-1 1-1v1h1l-1 3q0 3 1 0 2-3 1-7v-5h-1l-3 5-2 2h-2l4-7q2-3 0-4v-1l1-2q0-4-2-1l-4 4-7 7c-5 3-8 9-11 14q-4 6-2 14 1 6 5 12l1 5 4 9 10 12a3 3-43 0 1 0 4c-2 1-4 3-4 5v3c6 7 12 11 20 14l12 3h1l-4-9-8-17-3-7q-4-6-5-14l-5-13 2-2h2v-1l1-1h1q1 3 5 1 0 3-2 4h-4v2l1 5 1 3 1 4 1 5h1l-1-4v-1q-2-3-1-7l-1-1v-4l1-1h2v1l3 20 3 8 12 29c2 5 5 7 9 11h2l2 1 4 2 11 3 6 1h5l11-1 11-2q9-3 15-7c3-2 7-1 8-6h1l-3 4-9 6q-9 5-17 7l-18 3v1l6 6q5 11-7 18l-3 2-1 2a1 1 73 0 0-1 1l1 1v1h-40a1 1-7 0 1 0-1v-5l2-15 2-21 2-4a1 1 0 0 0-1-2l-7-1v1l-2 12-3 15-2 4q-2 2-1-1l2-8 1-7 1-5h-1v2l-2 4-6 15-3 9-3 8v-3l7-21 7-20 1-4a2 2 0 0 0-1-2q-5-1-10-5l-2-1a1 1 0 0 0-1 0c-1 3-1 7-3 10l-9 24-4 9-4 9q-3 8-1 0l5-14 2-4 8-25 4-9v-2l-7-6h-2q-3 3-3 9v3q1 0 0 0l-5 19-5 12c-1 6-5 11-8 17l-2 3-1 1h-5v-3l6-6 4-11 3-5 6-17 3-11q1-8 4-15v-6l1-1 4-5v-1l-3-3-3-3-8-12-2-5-2-6-5-13q-3-11 1-22l8-17c2-3 2-6 5-9a1 1 44 0 0 0-1l-1-1-1-1q0-6-3-12v-1l2-4v2q-2 3 1 7l1-7q1-4 4-7l4-6a1 1 18 0 1 1-1l5-1 1-1h3q2 0 1 2h-1l-6 2q-4 0-5 3l-5 11v5l-1 3c1 3 2 8 5 10l3 1q0 1 0 0c-4-3-7-7-7-12l1-4 1-5 4-6h5v-1l1-1-1-1-1-1a1 1 0 0 1 1 0h2l1 1-1 3q-2 1-1 3 5 8 14 6 2-1 1 1l-3 1q-11 1-15-8a1 1 59 0 0-1-1c-4 3-5 8-5 12 0 8 7 14 14 15l1 1-1 1q0 2 1 1l1-1v-4l-1-1q-6 1-9-4a1 1 0 0 1 0-2h2c2 3 6 5 9 2v-2h-1l-2-1a2 2-22 0 0-1 0q-5-1-8-5v-2l-1-3q-2-1 0-3a1 1 0 0 1 2 0q2 5 6 8c2 2 4 1 5 0q5 0 9-2l1-1 1-1q0-1 0 0h3l8-4 5-3v-1c0-2-1-5 1-7h1v6a1 1 0 0 0 1 0l7-6a1 1 0 0 1 1 0v1l-8 7a1 1-39 0 0 0 2c3 3 6 7 11 6l7-3v-2a1 1 0 0 1 0-1l3-1a2 2 0 0 0 2-1l1-4-1-2q-5-1-8 2-2 3-5 1a1 1-77 0 1-1 0l2-4v-6h1l2 3a1 1 0 0 0 2 0q2-4 6-5Zm-7 9v-1h-2a1 1 0 0 0-1 2h3v-1Zm-42 23-3 4v1l1 5v9h1v-9l1-4 2-5 1-5a1 1 0 0 0-1-1q-2 2-4 1a1 1 0 0 0-1 1 1 1 7 0 0 0 1l2 1a1 1-71 0 1 1 1Zm-23 11-9 18c-2 3-2 6-2 10v4q0 1 0 0l4-10c2-5 5-8 9-11l7-9v-2l-7-3a1 1 27 0 0-1 0l-1 3Zm77 137-1 1-2 2v2h2q2-2 6 0a2 1 36 0 0 1 0l3-1v-1l-1-2-1 1-1 1a1 1 0 0 1-1 0h-1a1 1 0 0 1 1-2v-2a1 1 73 0 0-1 0l-4-3h-1l-3-1q-9 0-16-4l-7-5a1 1 0 0 0-2 0v2l-4 33a1 1 0 0 0 1 0l21-14 10-8a1 1 0 0 1 1 1Zm9 6-1 1a1 1 20 0 0 0 1h1l1-1v-1h-1Zm-21 18 2 2a1 1 0 0 0 1-1v-4l-1-1h-3l-8 5v1a1 1 0 0 0 1 0l6-2 1-1h1v1Zm-25 0a1 1-30 0 0-1 0 1 1-30 0 0-1 1 1 1-30 0 0 1 0 1 1-30 0 0 1-1Z"/>
  <path fill="#263133" d="M110 228v5l-1 1-6 6-1 1v-1l4-5v-3l-1-3-5-3h-1l1-3h1q1-1 2 1h1l6 4Z"/>
  <path fill="#be4625" d="m100 223-1 3h1l5 3 1 3v3-4a1 1-65 0 0 0-1h-1l-1 1q-2 2-3 0a2 2-24 0 0-1 0q-5 0-7 3l1-3-1-1h-2a1 1 0 0 0-1 0l1 1 1 1-1 1v1h-5l-4 6-1 5-1 4c0 5 3 9 7 12q0 1 0 0l-3-1c-3-2-4-7-5-10l1-3v-5l5-11q1-3 5-3l6-2h1q1-2-1-2l4-1Zm123 20-11 4v2l-2-1 2-3 1-2-1-2-1-1v-1q-2-2-1-4 0-1 0 0l2 3a1 1 0 0 0 2 0v-1h2l9-5 5-3v1l-1 2-6 5a1 1-15 0 0-1 1l1 5Zm-20-13q-4-1-4 2l-1-1q-4 2-6 5l-3 4-3 3-2-4h-2q2-4 5-5l8-4h8Z"/>
  <ellipse fill="#263133" rx="1.2" ry=".9" transform="rotate(57 -75 371)"/>
  <path fill="#c49855" d="M203 230c2 1 4 4 5 7 0 2 2 4 1 7l-2 5q-2 5-6 8h-1v-6q2 0 4-4 2-3 0-5h-1q-2-2-3 0l-4 6a1 1 48 0 0 0 1l1 3-1 1-1-1-1-3-5-5 2-1h2a3 3 0 0 0 3-1l4-5 2-4-1-1-1 2-4 3q-2 1-1-1l1-2 3-2q0-3 4-2Z"/>
  <path fill="#be4625" d="M145 232h-3a1 1 0 0 1 1-2h2v2Zm44 12 7-10-1 2q-1 2 1 1l4-3 1-2 1 1-2 4-4 5a3 3 0 0 1-3 1h-2l-2 1Z"/>
  <path fill="#263133" d="M265 259v2h-1v2l1 1-2 3-5 1h-1v-1l4-1a3 3-13 0 0 1-3l1-3v-1q-5-14-19-20l-4-3v-1h1l10 6q10 7 14 18Z"/>
  <path fill="#c49855" d="M76 240v-3h1l-1 3Z"/>
  <rect width="7.8" height="1.3" x="-3.9" y="-.7" fill="#be4625" rx=".3" transform="rotate(42 -242 297)"/>
  <path fill="#dfd6b9" d="m150 248 2 1h1l4-1 3-3a1 1 0 0 1 1 0c5 5 10 7 16 9l1-1 8-5a1 1 0 0 1 1 0q3 4 7 6c3 3 4 7 7 9l5 5q3 6 9 6l1 1c-3 8 0 17 8 20l1 2-1 1h-3c1 5 8 3 11 1a2 2-32 0 1 3 1q3 4 3 7l-1 8-2 4-5 3-9 7c-4 3-4 10-3 14l3 4c3 2 5 6 9 8l7 4a2 2-57 0 1 1 2v2q0 11 5 25c1 4 5 6 9 7l2 2 1 1h1l-1 18-2 11-1 1v1h5-89l4-1v-1q0-1 0 0c-1 2-3 2-4 0l-7-5q12-7 7-18l-6-6v-1l18-3q8-2 17-7l9-6 3-4h-1c-1 5-5 4-8 6q-6 4-15 7l-11 2-11 1h-5l-6-1-11-3-4-2-2-1h-2c-4-4-7-6-9-11l-12-29-3-8-3-20v-1l-1-1q2-1 2-4l-1-2q1-7-2-12l-2-5 2-6 1-5 2-1h4q4-3 9-4c4 0 8 2 9 6v14l-1 6-3 8-2 7-3 9c-1 4 2 9 6 10 5 1 10 0 12-5l1-1 1 1c3 3 11 1 12-2q1-3-1-1t-5 2c-2 0-6 0-7-3a1 1 0 0 0-2-1c-2 3-3 6-7 6q-6 1-6-5c-1-5 3-10 4-14l1-5c3-9 6-17 3-26-2-6-8-8-13-8q-9 1-15 5h-1l1-3c1-7 0-12 2-19 0-3 3-4 2-8v-1l2-2 1-1q8-2 16-7h1l6 8q3 2 8 2 5 1 8-1Zm5 36c7-3 14-5 21 0l6 4 4 5 2 1 1-1-8-8q-5-5-13-7-9-1-14 5-2 2 1 1Zm9 3 3-1c6-2 11 3 14 7h1v-2l-8-6q-4-2-9 0h-3l-3 1-4 1v1h2l6-1h1Zm-45 4 7 4v-1l-4-4-9-3-8 2-1 1v1h1l3-1 1 2q-1 5 4 8c2 2 6-1 7-2 2-2 0-5-1-7q-1 0 0 0Zm51 0-1 1h-3v1l-1 3c-1 10 12 8 13 1q1-1 4 2h1q1 0 0 0-7-8-12-10c-3-1-9 1-12 4a1 1 0 0 0 0 1q5-3 8-3h3Zm10 11-3 3c-5 2-12 1-17-1l-5-2q-3 0-1 1c8 5 14 7 23 4q3-2 4-5h-1Zm-72 2q4 2 9 2v-1q-5 0-8-3l-1 1v1Zm16 49 23 1 1-1v-3h3v1c1 2 2 5 5 4v-1l-2-5-2-3h-1l-1 2-4 1-7 1-12-1-5-4a1 1 20 0 0-2 1q-1 11 4 7Zm92-1v10l-1 1-3 7v1l1 2q0 1 0 0v-3l2-5 1-4 2-8 1-3a1 1 60 0 0 0-1l-1-1a1 1 0 0 0-1 0l-1 4Zm-19 29-5 3-3 1-6 2-10 1-3 1v1h7l9-3 4-1h3l4-4 6-3 4-4h1l2-4h1v-4l2-8 1-2h-1l-1 2-4 12-3 4-8 6Zm-66-23-2 2q-1 2 1 2l12 3a1 1 10 0 0 2-1q0-2 2-3a1 1-18 0 0 0-1v-1h-1l-2 3a1 1-57 0 1-1 1c-2-1-1-4-1-5a1 1-85 0 0 0-1h-6a6 6-61 0 0-4 1Zm276-43 1 3h-2q0-3-2-4l-14-14-17-20-12-11-5-6-11-9c-2-3-6-4-9-6l-5-3c-2-1-3-2-3-4l8 4c7 4 13 8 19 14l8 8 11 11 15 16 15 16 3 5Z"/>
  <path fill="#263133" d="M227 277h-1q6-5 12-13t3-17a1 1 0 0 0-2 0l-2 3a1 1 14 0 1-1 0l2-4a1 1-66 0 0-1-2h-3l-19 4-3 1v-2l11-4c6-1 10-2 15-1s7 4 7 9q0 6-2 10-5 10-16 16Z"/>
  <ellipse fill="#c49855" rx="1.2" ry=".4" transform="rotate(37 -225 554)"/>
  <ellipse fill="#c49855" rx="2" ry="1" transform="rotate(119 28 182)"/>
  <ellipse fill="#c49855" rx="1.2" ry=".3" transform="rotate(49 -127 434)"/>
  <path fill="#be4625" d="M103 254a1 1-71 0 0-1-1l-2-1a1 1 7 0 1 0-1 1 1 0 0 1 1-1q2 1 4-1a1 1 0 0 1 1 1l-1 5-2 5-1 4v9h-1v-9l-1-5v-1l3-4Z"/>
  <ellipse fill="#c49855" rx="1.6" ry="1.3" transform="rotate(45 -214 340)"/>
  <path fill="#be4625" d="M429 251v-1 3h-1v-1l1-1Zm-145 15-1 2h-2v-1h-1q-5 0-7 3l-1 1-2 1a2 2 0 0 0-1 1l-1 6q-1 3-4 3-2 1-3-1l-2-6c-1-2 1-4-2-6v-2 1h1l5-1 2-3-1-1v-2h1v-2q3 5 7 0v1l1 1 1 1 1-1v-1a2 2-55 0 1-1 0v-8l1-1 2 1 2 3c1 1 0 2-1 3q-2 2 0 4l6 4Z"/>
  <path fill="#c49855" d="m283 256 1 2-1 2 1 1 1-1q-1 0 0 0l2 3 4 1a2 2-78 0 1 1 2q0 3 2 5v1l1 1 4 2c3 1 5-1 8-3h1l1-2 1 2-6 6-1 2v1h1l1-1v1l-4 4-1 4q-3 5-3-5l-3-2v-3a2 2 0 0 0 1-3l-1-4-1-1-2-2-4-2-2-4-4-2a1 1-68 0 1-1-1l3-4Zm15 22a1 1 0 0 0-1 0 1 1 0 0 0 0 2l2 4a1 1 0 0 0 2 0 1 1 0 0 0 0-2l-3-4Z"/>
  <path fill="#be4625" d="m427 258 1-1a1 1-3 0 1 1 1l-1 1h-1v-1Z"/>
  <path fill="#dfd6b9" d="M380 303q-1 4 1 6a2 2 0 0 1 0 3l-1 1-1 1h-1c-2-8-7-16-16-17l-7 1h-1v1l3 1c6-1 11 0 14 6l6 14-1 2h-1l-1-1h-1a1 1 54 0 0 0 1l1 1v1q-1 11 1 23-3 5-3 8-1 8 6 13v1l3 3v1h-1l-7-1-1 1v1l1 1 12 1q3 1 2 6-4 7-10 12-3-1-1-4l2-3v-5a2 2-47 0 0-4 1h-1l-1-1q0-2 2-2a1 1 0 0 0 0-1 1 1 0 0 0 0-1q-2 0-3-2l-1-4-1-4v-1l-2-1a1 1 0 0 1-1 0l-1-2v-1q1-2-1-4v-1l1-1-4-5h-1v3l3 4v3h-1q-1-4-5-7v-1a1 1 35 0 0 0-2l-7-3-2-2q-2-2-4-1l-1 1q-4 0-4-3t-2-1c-1 2-4 3-5 1l-1-2a1 1 0 0 0-1 0q-2 1-2 3l-1 2q-2 2-3 1a1 1-69 0 1 0-1l-1-1h-1l-1 3v1l-2 3 1 2 2 3 1 4c-1 3 0 4 1 7q1 1-1 1h-1v1q0 5 3 8a2 2 24 0 1 0 1l-1 3h-1v2q1 2-1 2l-4-3h-1v1h1l1 2 1 1 6 2v1h1l-1 1-5-1-4-3-21-18-13-17v-3l1-5 4-17 1-6 4-6v-1l1-6q3-4 3-7v-6l1-1h1l2 1a2 2-56 0 0 2 0l5-10q1-2 2 0 3 5 9 8h3v-1q-5-1-8-5l-3-6-1-1 2-6h1a2 2-74 0 1 1 1c0 3-1 7 2 8 2 1 5 2 7 0 2-4-1-6-3-8q-2-3 2-1c4 2 6 6 7 10a1 1 0 0 0 1 1l1-2q-2-9-9-12h-8v-2l1-3 1-3h1l2 1c4-1 8 2 11 4q7 5 10 11l1 6-2 3q-5 2-8 6a1 1-69 0 1-1 1v-1l5-5q3-2 4-6h-1c-6 7-13 14-22 16l-12 6c-2 2-3 6-3 8l1 6c2 3 6 6 10 3h1l-2 3a1 1 26 0 0 1 1l2 1h2l1-1-1-1-1-2 1-1v-1h-1l-3-1c-2 1-6 2-7-2q-3-6 1-10 2-2 7-3l7-2q6-2 13-7l3-4 6-4q4-5 2-9-5-11-17-17l-7-2-1-1 1-1c3 0 5 1 7-1l1-1q7 3 13 8l9 10 19 17 11 11Zm-62-35 1-1h-1v1Zm-22 45q-1 2 1 3a1 1 9 0 0 1-1l1-5 4-8v-2l-1-1h-1l-4 10-1 4Zm61-2v-3q3 2 4 7l1 16v2l1-1 1-10-1-8q-3-12-14-10l-2 1 1 1h1v2c-4 6 3 9 7 7a2 2 73 0 0 1-2v-2Zm-13 1v-4a1 1 0 0 0-1-1h-1l-1 2q0 7 5 12c2 3 6 6 9 7a1 1 0 0 0 1-1c-5-5-10-7-12-15Zm-38 27 7 6h1l2-2v-1l-1-2a1 1 41 0 1 0-1v-1a1 1 85 0 0 0-1l-4 1-1-1-2-1q-5-3-9-8-2-1-2-3l-2-3q-1-2-2-1l-1 2v3l2 3c3 5 7 7 12 10Zm-7 4 3 4h1v-1l-2-2a1 1 69 0 1 0-1h4v-1a2 2 60 0 0-2-1c-3 1-7-3-8-5l-4-4q-2-1-3 1l2 5 4 6a1 1 0 0 0 2 0v-1h3Zm62-5h-2v1l2 3 2 6 2 3 1 4q3 2 2-1l-2-4-1-5-2-5-2-2Z"/>
  <path fill="#be4625" d="m284 258 1 2q-1 0 0 0l-1 1-1-1 1-2Z"/>
  <path fill="#dfd6b9" d="m80 265 1-3a1 1 27 0 1 1 0l7 3v2l-7 9c-4 3-7 6-9 11l-4 10q0 1 0 0v-4c0-4 0-7 2-10l9-18Z"/>
  <path fill="#be4625" d="M427 263h2l-1 1h-1q-1 3 1 4l-1 1-1 2h-1l1-8h1Zm-9 1h2v1l-1 1h-1l-1-2h1Zm-202 2-6 1h-2l1-1h7Z"/>
  <path fill="#dfd6b9" d="m210 267 3 1h1l1 3h-1q-4 0-6-4h2Z"/>
  <path fill="#be4625" d="m315 267-1 3 1-3Zm3 1v-1h1l-1 1Zm-31-1 4 2h-1l-1 1q2 1 2 3v1h-1l-1-1-2-6Z"/>
  <path fill="#dfd6b9" d="m93 284-5 5-4 5a3 3-30 0 0-1 2l1 6c2 5 5 6 9 8l3 5 5 13q1 8 5 14l3 7 8 17 4 9h-1l-12-3c-8-3-14-7-20-14v-3c0-2 2-4 4-5a3 3-43 0 0 0-4l-10-12-4-9-1-5q-4-6-5-12-2-8 2-14c3-5 6-11 11-14l7-7 4-4q2-3 2 1l-1 2v1q2 1 0 4l-4 7Z"/>
  <path fill="#be4625" d="m252 271-3 2-3 2-1-1 1-1 7-3h2l-1 1h-2Z"/>
  <path fill="#263133" d="m261 302-1 3v1l-1 1a1 1 0 0 1-1 0v-3l-1-3a1 1 0 0 0-2 1q0 4-2 7h1l1 1q1 2-2 2-1-6 1-11l3-3h1l3-2 5-2a1 1-2 0 0 0-1v-1a1 1-36 0 0-1-1l-9 7-4 1q-7-1-11-5a1 1 69 0 0-1-1h-3l1-4v-1l-1-3 1-1h1l1 3a1 1 52 0 0 1 0l4-4v-1q-6-2-10 0h-2v-1c4-3 8-3 13-1s8 9 7 15h1l9-5 4-4 7-10c2-2 2-4 5-6h1v1l-2 2v1c2 1 2 4 1 5l-6 7-5 8q-3 4-9 5a1 1 63 0 0 0 1l2 2Zm9-16a1 1 0 0 0 1 0q4-3 6-8v-2h-1l-2 5q-3 2-4 5Zm-19 9c1-4-1-8-3-11a1 1 0 0 0-1 0l-4 5a1 1-39 0 0 0 2q2 5 8 5v-1Z"/>
  <path fill="#be4625" d="M425 289v-15l1-1v15q0 2-2 3v-2a1 1-20 0 0 1 0Zm-155-3q1-3 4-5l2-5h1v2q-2 5-6 8a1 1 0 0 1-1 0Zm2 16-1-1h-1 1v-1h-1l2-1 2 1h1l8-6 4-5 1-3q0-2 2-3v-1l-2-1v-3h1a1 1 75 0 0 1 0l1-2h1c1 2 0 4-1 6v2l-1 6-1 1h-1l-4 6-1 1q-4 2-7 6l-4 3q-2 0-1-1l3-3v-1h-2Zm45-21v-5h1l3 5v1h-4v-1Zm-220 6h-1v-2a1 1 28 0 0-1 1q-3 3-7 3l5-5h2l2-2 3-5h1v5q1 4-1 7-1 3-1 0l1-3h-1v-1l-1 1-1 1Zm129-10h1l-4 1v-1h3Z"/>
  <ellipse fill="#be4625" rx="1.5" ry=".6" transform="rotate(117 69 234)"/>
  <rect width="2.3" height="6.9" x="-1.1" y="-3.5" fill="#263133" rx="1.1" transform="rotate(-31 653 -394)"/>
  <path fill="#263133" d="M176 284c-7-5-14-3-21 0q-3 1-1-1 5-6 14-5 8 2 13 7l8 8-1 1-2-1-4-5-6-4Zm54-4 1 1v1h-2v-1l1-1Z"/>
  <path fill="#be4625" d="M111 281h-4 4Z"/>
  <path fill="#263133" d="M272 299c5-2 10-6 13-10l2-6 1-2 2 1v1q-2 1-2 3l-1 3-4 5-8 6h-1l-2-1Z"/>
  <path fill="#be4625" d="M292 288a1 1 0 0 0 0-1v-2q0-2 2-2a1 1-3 0 1 1 1l-1 7a1 1 0 0 1-2 0v-3Z"/>
  <path fill="#c49855" d="M164 287h-1l-6 1h-2v-1l4-1 3-1h3q5-2 9 0l8 6v2h-1c-3-4-8-9-14-7l-3 1Zm84-3c2 3 4 7 3 11v1q-6 0-8-5a1 1-39 0 1 0-2l4-5a1 1 0 0 1 1 0Z"/>
  <path fill="#be4625" d="m341 286-1 3h2l-6 4-3 4q-7 5-13 7l-7 2q-5 1-7 3-4 4-1 10c1 4 5 3 7 2l3 1q-1-1-2 1h-1c-4 3-8 0-10-3l-1-6c0-2 1-6 3-8l12-6c9-2 16-9 22-16h1q-1 4-4 6l-5 5v1a1 1-69 0 0 1-1q3-4 8-6l2-3Zm-44-2q0 10 3 5l-1 3-3 2-1 1v6l-1 4-2 6-1 4v1l-3 3a1 1 3 0 0-1 0l-2 3 1-2h-3q-2 1-1 4a1 1 0 0 1 0 2l-2 6-1 12-2 4h-1v7a1 1 0 0 1-1 1 1 1 0 0 1-1-1v-18l-1-8q0-4-2-7v-4l2-1 1-1 2 1q-1 1 1 1a1 1 23 0 0 1 0l4-5q7-6 4-14 0-4 3-7a2 2 0 0 1 2 1v2h1l4-4 1-7Zm8 2-2 7-2 1v-1l1-6h1l2-2v1Z"/>
  <path fill="#263133" d="M96 287q-4 5-9 8a2 2 0 0 0-1 2q1 5 5 7l4 3 1 2 1 3h-2l-2-2c-4-2-7-3-9-8l-1-6a3 3-30 0 1 1-2l4-5q4 0 7-3a1 1 28 0 1 1-1v2Z"/>
  <path fill="#dfd6b9" d="M96 287h1l2 12 1 3-1 2 1 1v8h-2l-1-1-1-3-1-2-4-3q-4-2-5-7a2 2 0 0 1 1-2q5-3 9-8Zm-2 7 1-2a1 1 13 0 0-1 0l-3 3a1 1 80 0 0-1 0v1h1l3-2Zm-3 5h-1q2 5 7 6v-1a1 1 88 0 0-1-1q-3 0-4-3l-1-1Z"/>
  <path fill="#be4625" d="M421 288v6a1 1 0 0 0 1 1l2-1a1 1 0 0 1 1 0v1l1 1 1 4v1h-2q-2 1-2 4v1l-3 2-1 1v2-5l-1-1a2 2 62 0 1 1-1l1-4-1-1-1-2 1-1 1-1a1 1 0 0 0-1-1l-3 4-1 1-2 3a1 1 0 0 0 0 2c2 1 3 2 3 4v21a1 1-74 0 0 0 1q1 1 2-2l1 12v9q-1 5 1 10a3 3-38 0 1-1 2c-1 2-2 6-1 8l3 1-2 4-1-4q-3-3-1-5v-7l-2-8q0-2-1 0h-2c1-5 0-8-1-11l-1-1 2-9a1 1 27 0 0 0-2h-2v1l-1 5v-5l-1-1h-1l1 2v1l-1 4-1 4-2 7v1l-1 2-3 8-1 1-1-1-2-2h-1l-2-2q0-4 3-8 2-1 1-4l1-3 2-8v8q1 2-1 4l-2 2q-3 5 1 1l4-5q0-4 2-7 2-2 1-5h-1l1-3v-1l1-5h2l-1-3 1-4v-1l1-3c1-1 2-1 1-3l1-1 1-4a1 1 82 0 1 1-1l1-1v-1h-1q-2 1-1-1l1-2v-2q0-1 0 0l2 1h1v-2l2-3h1v4l-1 1a1 1 0 0 0 2 0l1-4Z"/>
  <path fill="#263133" d="M119 291c1 2 3 5 1 7-1 1-5 4-7 2q-5-3-4-8l-1-2-3 1h-1v-1l1-1 8-2 9 3 4 4v1l-7-4q-1 0 0 0Zm50 0h-2q-3 0-8 3a1 1 0 0 1 0-1c3-3 9-5 12-4q5 2 12 10 1 0 0 0h-1q-3-3-4-2c-1 7-14 9-13-1l1-3v-1h3l1-1h-1Z"/>
  <path fill="#c49855" d="m94 294-3 2h-1v-1a1 1 80 0 1 1 0l3-3a1 1 13 0 1 1 0l-1 2Z"/>
  <path fill="#be4625" d="m224 298 1-1-1-2q3-2 7 1l-1 1q-3 2-6 1Z"/>
  <path fill="#263133" d="m419 311-1 17q-1 3-2 2a1 1-74 0 1 0-1v-21c0-2-1-3-3-4a1 1 0 0 1 0-2l2-3 1-1 3-4a1 1 0 0 1 1 1l-1 1-1 1 1 2 1 1-1 4a2 2 62 0 0-1 1l1 1v5Zm-5-8 2 1a4 1-55 0 0 1-4 4 1-55 0 0-3 2v1Z"/>
  <circle cx="233.7" cy="296.6" r="1.4" fill="#be4625"/>
  <path fill="#263133" d="m378 314 2 18 1 11a1 1 0 0 0 1 0l5-1h4c4-6 1-10-2-15a4 4-55 0 1 0-2l1-2 1 1 3 7c2 3 1 6 1 10l-3 4-2-1a1 1 0 0 0-1 0q-5 3-11 3-7 9 1 16c4 3 9 0 12-3v-1q3-1 1 2l-2 3-8 4h-4q-7-5-6-13 0-3 3-8l4-4v-1l-2-22-6-14c-3-6-8-7-14-6l-3-1v-1h1l7-1c9 1 14 9 16 17Z"/>
  <path fill="#be4625" d="m395 318-2-2h-1l-2-2-3-6-4-9 1-1 4 6 2 4 5 10ZM92 300q1 3 4 3a1 1 88 0 1 1 1v1q-5-1-7-6h1l1 1Zm149 3 3 9v2q2 4 0 7l-4 3-8 4h-1l-3 1-6 4-1-1 2-2 8-6 4-3q3-1 4-4l1-10v-1h-1v-1l1-2v-1l-2-2v-1h1l1 2 1 2Z"/>
  <path fill="#c49855" d="m387 308 3 6 2 2h1l2 2 5 11-2 8-1 3q1 3-1 4-3 4-3 8l-6-2h-1q-4 1-8-1v3l2 7 2 4a2 2-64 0 0 3-2q2-4 5-6l1 2v3c-3 3-8 6-12 3q-8-7-1-16 8 0 14-2l3-4c0-4 1-7-1-10l-3-7-1-1-1 2a4 4-55 0 0 0 2c3 5 6 9 2 15h-4l-5 1a1 1 0 0 1-1 0l-1-11-2-18h1l1-1 1-1a2 2 0 0 0 0-3q-2-2-1-6h1a1 1 0 0 0 0-1l-1-3h2v1q1 5 5 8Z"/>
  <path fill="#263133" d="m296 313 1-4 4-10h1l1 1v2l-4 8-1 5a1 1 9 0 1-1 1q-2-1-1-3Z"/>
  <path fill="#be4625" d="M414 303v-1a4 1-55 0 1 3-2 4 1-55 0 1-1 4l-2-1Z"/>
  <path fill="#263133" d="M270 300h1v1h-1q-3 2-4 6a1 1 0 0 0 0 1l1 3v4l-1 1-1-2-2-1c-6 2-10 7-13 13-3 9-7 16-17 18l-2-1 8-4 6-9 4-11 7-6 6-2a2 2-56 0 1 0-1h2-1l-1-2 1-5 7-3Z"/>
  <path fill="#be4625" d="m261 302 2 1-1 5-1-1h-1v3h4-2a2 2-56 0 0 0 1l-6 2-3-1q3 0 2-2l-1-1h-1q2-3 2-7a1 1 0 0 1 2-1l1 3v3a1 1 0 0 0 1 0l1-1v-1l1-3Z"/>
  <path fill="#263133" d="M180 302h1q-1 3-4 5c-9 3-15 1-23-4q-2-1 1-1l5 2c5 2 12 3 17 1l3-3Z"/>
  <path fill="#be4625" d="m100 302 2 1 1 1 1 5q0 2 2 1l1 2q-4 2-5-1h-1l-1 1v1-8l-1-1 1-2Z"/>
  <path fill="#263133" d="M108 304v-1l1-1q3 3 8 3v1q-5 0-9-2Zm249 4-4-1a1 1-79 0 0-2 1v4a1 1 76 0 0 1 1l2-1v-3a1 1 49 0 1 1 0l2 2v2a2 2 73 0 1-1 2c-4 2-11-1-7-7v-2h-1l-1-1 2-1q11-2 14 10l1 8-1 10-1 1v-2l-1-16q-1-5-4-7Z"/>
  <path fill="#be4625" d="M357 308v3l-2-2a1 1 49 0 0-1 0v3l-2 1a1 1 76 0 1-1-1v-4a1 1-79 0 1 2-1l4 1Z"/>
  <path fill="#c49855" d="m262 308 1 2h-3v-3h1l1 1Z"/>
  <path fill="#263133" d="M344 312c2 8 7 10 12 15a1 1 0 0 1-1 1c-3-1-7-4-9-7q-5-5-5-12l1-2h1a1 1 0 0 1 1 1v4Z"/>
  <path fill="#be4625" d="m279 310-1-1 1-1h1l-1 2Z"/>
  <path fill="#263133" d="m278 309 1 1-3 7-2-1-1 1-2 1-1-3 2-1q4-1 6-5Z"/>
  <path fill="#be4625" d="m93 310 2 2h2l1 1-2 2-3-5Zm179 4-2 1-1-2 2 1h1Zm-167 2 1 1h-2l-1 1v4l1 1q-1 4 1 7v1l1 4h-1l-1-5-1-4-1-3-1-5v-2h4Z"/>
  <path fill="#c49855" d="m285 322-2 7-2 12v5q0 3-2 5a2 2 0 0 0 0 3l7 8v1h-1v1-1h-1l-1 2h1a1 1-45 0 0 0-2l-3-3a1 1-61 0 0-2 1l-1 1-2 1-1 1v-3l-1-2-1-3 1-6v5a1 1 0 0 0 1 1 1 1 0 0 0 1-1v-7h1l2-4 1-12 2-6a1 1 0 0 0 0-2q-1-3 1-4h3l-1 2Zm92-2 2 22v1l-4 4q-2-12-1-23v-1l-1-1a1 1 54 0 1 0-1h1l1 1h1l1-2Z"/>
  <path fill="#be4625" d="M306 339c-5-3-9-5-12-10l-2-3v-3l1-2q1-1 2 1l2 3q0 2 2 3 4 5 9 8l2 1 1 1 4-1a1 1 85 0 1 0 1v1a1 1 41 0 0 0 1l1 2v1l-2 2h-1l-7-6Z"/>
  <path fill="#263133" d="M315 322h1v1l-1 1 1 2 1 1-1 1h-2l-2-1a1 1 26 0 1-1-1l2-3q1-2 2-1Zm-45 8-2 1a1 1 0 0 0 0 1l-1 4-2-4 1-1v-3l-1-3q0-2 1-1 4 1 2 4l1 1a1 1 84 0 1 1 1Zm139 3q-5 12-7 25l-3 9q-7 6-14 9l-12-1-1-1v-1l1-1 7 1 3 1h2l5-2c4-3 6-5 7-9l1-1 1-2q2-1 0-1l-2-1h-1l-1-3a2 2 0 0 0-2 0h-3q-3 2-5 6a2 2-64 0 1-3 2l-2-4-2-7v-3q4 2 8 1h1l6 2 2 2h1l2 2 1 1 1-1 3-8 1-2v-1l2-7 1-4 1-4v-1l-1-2h1l1 1v5Z"/>
  <path fill="#c49855" d="m419 374-14 23-4 3-1 1-3 5a2 2-24 0 0 0 2v4l-2 2c-2 0-3-1-3-3v-2l1-3 2-12 1-10 2-10 1-7 3-9q2-13 7-25l1-5v-1h2a1 1 27 0 1 0 2l-2 9 1 1c1 3 2 6 1 11h2q1-2 1 0l2 8v7q-2 2 1 5l1 4Z"/>
  <path fill="#dfd6b9" d="M270 330c2 1 1 3 1 5h1l1 2v7l1 1v5l-1 6 1 3 1 2v3l2 1v1c-2 1 1 4 2 6a1 1 29 0 1 0 1q-1 3 3 4a2 2 77 0 1 1 1l1 3q0 1 0 0l-4-2q-4-1-4-6l-1-1q-4-4-6-10v-10l-2-3-1-3v-3l-1-5 2-2 1-4a1 1 0 0 1 0-1l2-1Z"/>
  <path fill="#c49855" d="m295 336-1-1-1 1q2 4 6 7h-3v1a1 1 0 0 1-2 0l-4-6-2-5q1-2 3-1l4 4Z"/>
  <path fill="#be4625" d="M295 336c1 2 5 6 8 5a2 2 60 0 1 2 1v1h-4a1 1 69 0 0 0 1l2 2v1h-1l-3-4q-4-3-6-7l1-1 1 1Z"/>
  <path fill="#c49855" d="m361 338 2 2 2 5 1 5 2 4q1 3-2 1l-1-4-2-3-2-6-2-3v-1h2Z"/>
  <path fill="#be4625" d="M263 341q-1 3 1 6a2 2-59 0 1 1 1q-1 4-4 6l-4 4a1 1 0 0 1-2 0c-1-1 0-3 1-4q4-3 6-7v-2h-2l3-4Zm-181 1 3 3-3-3Z"/>
  <path fill="#c49855" d="m377 394-2 1-2-1-3 1-8 3h-2l-8 2-3 2h-3v-2l-1-1h-1l-1 1-7-1-14-2-5-2h-6l-1-1v-1l1-1h2v-2h1l5 3q10 4 20 3c8-1 16-6 24-8l7-3-1-1-3 1-9 3-17 5h-10l-4-1 1-1h-1v-1l-6-2-1-1-1-2h-1v-1h1l4 3q2 0 1-2v-2h1l1-3a2 2 24 0 0 0-1q-3-3-3-8v-1h1q2 0 1-1c-1-3-2-4-1-7l-1-4-2-3-1-2 2-3v-1l1-3h1l1 1a1 1-69 0 0 0 1q1 1 3-1l1-2q0-2 2-3a1 1 0 0 1 1 0l1 2c1 2 4 1 5-1q2-2 2 1t4 3l1-1q2-1 4 1l2 2 7 3a1 1 35 0 1 0 2v1q4 3 5 7h1v-3l-3-4v-3h1l4 5-1 1v1q2 2 1 4v1l1 2a1 1 0 0 0 1 0l2 1v1l1 4 1 4q1 2 3 2a1 1 0 0 1 0 1 1 1 0 0 1 0 1q-2 0-2 2l1 1h1a2 2-47 0 1 4-1v5l-2 3q-2 3 1 4Z"/>
  <path fill="#be4625" d="m231 343 2 1q-4 1-2-1Zm161 2q-6 2-14 2 6 0 11-3a1 1 0 0 1 1 0l2 1Z"/>
  <path fill="#263133" d="M127 349q0 2-3 4-5 4-4-7a1 1 20 0 1 2-1l5 4Zm24 2-1-3 1-2h1l2 3 2 5v1c-3 1-4-2-5-4Z"/>
  <path fill="#be4625" d="m150 348 1 3v-1h-3v3l-1 1-23-1q3-2 3-4l12 1 7-1 4-1Z"/>
  <path fill="#c49855" d="m216 352 1-4a1 1 0 0 1 1 0l1 1a1 1 60 0 1 0 1l-1 3-2 8-1 4-2 5v3q0 1 0 0l-1-2v-1l3-7 1-1v-10Z"/>
  <path fill="#be4625" d="M243 354h-3v1l1 1-11-4-4-4q-1 0 0 0l1 1h1l1 1h3l1 1 2 1 8 2Z"/>
  <rect width="1.2" height="9.7" x="-.6" y="-4.8" fill="#be4625" rx=".6" transform="rotate(43 -236 724)"/>
  <path fill="#c49855" d="m267 349 2 3v2-1a1 1 0 0 0-1 0l-8 8-2 2h-1q-2 2-5 1v-2l8-4 7-9Z"/>
  <path fill="#263133" d="M433 353v6l-1 3-1 3-1 1-1 3v3q-4 4-6 9l-6 8-8 14c-3 6-7 10-13 13h-2v-1l1-1 2-2 4-4 3-2 1-1 2-4 7-12 6-8 6-9a2 1 58 0 0 0-1l-1-1-1 2-5 6-2 4-2 3-9 14h-1l-1-1 1-1 14-23 2-4 3-3 9-14Z"/>
  <path fill="#be4625" d="M390 372v-8l2-3q2-3-1-2v1-3l-1-2h3a2 2 0 0 1 2 0l1 3h1l2 1q2 0 0 1l-1 2-1 1c-1 4-3 6-7 9Zm-193 10v-1l8-6 3-4 4-12 1-2h1l-1 2-2 8v4h-1l-2 4h-1l-4 4-6 3Zm-66-24a6 6-61 0 1 4-1h6a1 1-85 0 1 0 1c0 1-1 4 1 5a1 1-57 0 0 1-1l2-3h1v1a1 1-18 0 1 0 1q-2 1-2 3a1 1 10 0 1-2 1l-12-3q-2 0-1-2l2-2Zm121 4v1q-2 0-3-2a2 2 0 0 0-3 0l-1 4h-1l1-2-1-1h-1a1 1-89 0 0-1 1v5l1 2 1 6h-1v-1l-1 1q0 1 0 0v-2l-2-4v-10h6q3 1 4-2a1 1-65 0 1 2 0l1 1-2 1a1 1 86 0 0-1 1q0 2 2 1Z"/>
  <path fill="#dfd6b9" d="M433 359v11l-4 6-8 12-5 10-9 15q-3 4-10 4l-2 1-1-1 2-1c6-3 10-7 13-13l8-14 6-8q2-5 6-9l3-4v-6l1-3Z"/>
  <path fill="#be4625" d="M432 362v6l-3 4v-3l1-3 1-1 1-3Z"/>
  <path fill="#c49855" d="M390 364v8l-5 2h-2l-3-1h1v-1l-3-3 4-1 8-4Z"/>
  <path fill="#dfd6b9" d="M96 429H62l1-1q3 0 2-3c3-6 7-11 8-17l5-12 5-19q1 0 0 0v-3q0-6 3-9h2l7 6v2l-4 9-8 25-2 4-5 14q-2 8 1 0l4-9 4-9 9-24c2-3 2-7 3-10a1 1 0 0 1 1 0l2 1q5 4 10 5a2 2 0 0 1 1 2l-1 4-7 20-7 21v3Zm-11-1 8-22 1-3 7-25-1-2h-1l-7 27-1 6-6 19Z"/>
  <path fill="#be4625" d="m382 368-4 1v-1h4Zm17-1-1 7-2 10-1 10-2 12-1 3v2c0 2 1 3 3 3l-1 1v1h2l-2 1 1 1 2-1q0 2-2 1l-2 1c-2 0-4 4-5 6l-1 1q-2 1-1 2l-3-1-3-2v-1h1l4 1a2 2 0 0 0 2-2v-1l-2-2v-1h1l2-1 1-1-2-2v-8l-1-10-1-1v-3l2-7 5-9 1-2h-1l-1 1v1q-3 2-4 5 1-5-2-6 7-3 14-9Z"/>
  <path fill="#be4625" d="M397 412v-4a2 2-24 0 1 0-2l3-5 1-1 4-3-1 1 1 1h1l9-14 2-3 2-4 5-6 1-2 1 1a2 1 58 0 1 0 1l-6 9-6 8-7 12-2 4-1 1-3 2-4 4Z"/>
  <path fill="#263133" d="M433 370v12h-2l-4 5h-1l-3 4-2 3-1 2-1 2-1 2-2 3-5 9-4 3v1l-2 1-1 1-3 2a1 1 0 0 1-2 0q-1-2-2-1c-3 1-4 4-7 6a2 1-12 0 0 0 1v2h-1l-1 1-2-1q-1-1 1-2l1-1c1-2 3-6 5-6l2-1q2 1 2-1 7 0 10-4l9-15 5-10 8-12 4-6Z"/>
  <path fill="#be4625" d="M297 375v-2l1 1-1 1Z"/>
  <path fill="#263133" d="m85 428 6-19 1-6 7-27h1l1 2-7 25-1 3-8 22Z"/>
  <path fill="#dfd6b9" d="M433 378v6-6Zm-153 5-1-1q-1-3 1-1l3 3 1 1q2 0 3 2l1 1 1 1h1l-1 2a1 1 0 0 1-1 0l-4-5-1-1h-2l-1-1v-1Zm-155 46H96l3-8 3-9 6-15 2-4v-2h1l-1 5-1 7-2 8q-1 3 1 1l2-4 3-15 2-12v-1l7 1a1 1 0 0 1 1 2l-2 4-2 21-2 15v5a1 1-7 0 0 0 1h8Zm-7-45q0-1 0 0v1q0 1 0 0v-1Zm-11 32v2l-1 1-2 9h1l3-12 1-2h-1l-1-1h-1v2l1 1Z"/>
  <path fill="#c49855" d="M197 381v1l-4 4h-3l-4 1-9 3h-7v-1l3-1 10-1 6-2 3-1 5-3Z"/>
  <path fill="#be4625" d="M433 381v48h-9l-1-1-1-2h-2v2l-1 1h-31l1-1h1v-2a2 1-12 0 1 0-1c3-2 4-5 7-6q1-1 2 1a1 1 0 0 0 2 0l3-2 1-1 2-1v-1l4-3 5-9 2-3 1-2 1-2 1-2 2-3 3-4h1l4-5h2v-1Z"/>
  <path fill="#c49855" d="M118 384v1q0 1 0 0v-1q0-1 0 0Z"/>
  <path fill="#dfd6b9" d="m265 386-4 4-2 2h-4v-1l-1-5h1l9-1q1-1 1 1Z"/>
  <path fill="#be4625" d="m265 386 4 3 1 1v5l-1 1h-1l-1-1q-1-2-1 0-1-3-4-3-2 0-2 2h-1l1 2h2v1q-2 0-3 3l1 2 2-2v1a1 1 0 0 0 1 0l3-2q4 0 6 2l-1 2v1q2 0 1 2v1l1 1h1l1-5 2 4v1q-1 2 1 3l1 3v3l-1 1a1 1-84 0 0 0 1v2l1 3 1 1v1h1v2l-1 1h-2v-2l-1-2-1 1q0 2-2 2v1h1-23v-1l1-1 2-11q2-3 1-8h1l1-1a2 2 0 0 0 0-3q-2-1-2-6h-1l2-1-1-1q-2-1-2 1l-2-2q3 0 3-3h4l2-2 4-4Z"/>
  <path fill="#dfd6b9" d="m387 386-2 7v3l1 1 1 10v8l2 2-1 1-2 1h-1v1l2 2v1a2 2 0 0 1-2 2l-4-1h-1v1l3 2 3 1 2 1h2-15l1-2-4-20c0-3-3-8 2-10l7-1v-2l-1-1 1-1 6-6Zm-230 16a1 1 0 0 0-1-1l-10 8-21 14a1 1 0 0 1-1 0l4-33v-2a1 1 0 0 1 2 0l7 5q7 4 16 4l3 1h1l4 3a1 1 73 0 1 1 0v2a1 1 0 0 0-1 2h1a1 1 0 0 0 1 0l1-1 1-1 1 2v1l-3 1a2 1 36 0 1-1 0q-4-2-6 0h-2v-2l2-2 1-1Zm134-8 1 2a1 1 53 0 1 0 1h-3a2 2 0 0 1-1-2v-2q1-2 2 0a2 2 4 0 0 1 1Z"/>
  <path fill="#c49855" d="m266 395-4 5-2 2-1-2q1-3 3-3v-1h-2l-1-2h1q0-2 2-2 3 0 4 3Z"/>
  <ellipse fill="#dfd6b9" rx="1.4" ry="1.1" transform="rotate(68 -150 404)"/>
  <path fill="#263133" d="m255 398-1-1q0-2 2-1l1 1-2 1Z"/>
  <path fill="#c49855" d="M256 398q0 5 2 6a2 2 0 0 1 0 3l-1 1h-1q1 5-1 8l1-18Z"/>
  <path fill="#dfd6b9" d="M284 429h-8 4l1-1v-2q1-3-1-5a2 2 0 0 1 0-1v-1l1-1-2-19 1-1 2 1a1 1 14 0 1 0 1v11l1 4v7q2 3 0 6v1h1Z"/>
  <path fill="#be4625" d="M361 405v-4h-2l2-1v5Z"/>
  <path fill="#dfd6b9" d="M374 429h-6q1-4-1-9l-1-4-2-13q-1-1 1-3h1q2-1 3 2l2 13 1 2 2 12Zm-13-24 5 21q0 2-2 1l-3-2-2-3-12-6q-6-2-5-8v-3a1 1 84 0 1 1-1l8-1 8-2h2v4Z"/>
  <path fill="#c49855" d="M272 401q2 0 3 2l-1 5h-1l-1-1v-1q1-2-1-2v-1l1-2Z"/>
  <path fill="#dfd6b9" d="m339 405 1 4 1 2q0 3-2 1l-3-3c-2-2-1-4 0-6q2 0 3 2Z"/>
  <path fill="#be4625" d="m339 405 1 4-1-4Zm-173 3h1v1l-1 1h-1a1 1 20 0 1 0-1l1-1Z"/>
  <ellipse fill="#c49855" rx="1.7" ry="1" transform="rotate(68 -138 452)"/>
  <path fill="#be4625" d="M329 415q2 1 1-1l1-2h1l-1 3-1 1q-1 2-4 1v-2h3Z"/>
  <path fill="#263133" d="M108 416h-1l-1-1v-2h1l1 1h1l-1 2Z"/>
  <path fill="#be4625" d="M107 416h1l-3 12h-1l2-9 1-1v-2Zm259 0 1 4-1-4Zm-19 13h-19l-2-8v-3a1 1 0 0 1 2 0l2 1q0 1 0 0v-2a1 1-2 0 1 1 0l3-1c-1 5 1 5 4 7 2 2 5 2 7 3a1 1-90 0 1 1 1v2h1Z"/>
  <path fill="#dfd6b9" d="m295 420 1 4a1 1 0 0 1-1 1l-1-1v-3q0-2 1-1Z"/>
  <path fill="#be4625" d="M361 427a5 3 38 0 1-6 0l-1-1a5 3 38 0 1-1-5l8 6Zm-216-2h-1l-1 1-6 2a1 1 0 0 1-1 0v-1l8-5h3l1 1v4a1 1 0 0 1-1 1l-2-2v-1Zm16-3 7 5c1 2 3 2 4 0q0-1 0 0v1l-4 1h-14 3v-1l-1-1a1 1 73 0 1 1-1l1-2 3-2Zm3 6a2 1 30 0 0-1-2 2 1 30 0 0-1 0 2 1 30 0 0 0 2 2 1 30 0 0 2 0Zm-99-3q1 3-2 3l2-3Z"/>
  <path fill="#263133" d="M278 429h-4v-1q2 0 2-2l1-1 1 2v2Z"/>
  <path fill="#dfd6b9" d="M426 429h-10 3l1-1v-2h2l1 2 1 1h2Z"/>
  <ellipse fill="#c49855" rx="1.6" ry="1" transform="rotate(30 -704 513)"/>
  <ellipse fill="#be4625" rx="1" ry=".7" transform="rotate(-30 851 -7)"/>
  <path fill="#dfd6b9" d="M147 429h-14 14Zm19 0h-8 8Zm132 0h-12 12Zm8 0h-8 8Zm22 0h1-15 14Zm19 0h9-9Z"/>
  <path fill="#be4625" d="M355 429h8-8Z"/>
</svg>